<?xml version="1.0" encoding="UTF-8" standalone="no"?>
<svg
   xmlns:dc="http://purl.org/dc/elements/1.1/"
   xmlns:cc="http://creativecommons.org/ns#"
   xmlns:rdf="http://www.w3.org/1999/02/22-rdf-syntax-ns#"
   xmlns:svg="http://www.w3.org/2000/svg"
   xmlns="http://www.w3.org/2000/svg"
   width="120"
   height="180"
   viewBox="0 0 31.749999 47.625001"
   version="1.1"
   id="svg8">
  <defs
     id="defs2" />
  <g
     id="g1005"
     transform="matrix(-0.9979012,0,0,1,2.844566,-16.86786)" />
  <g
     id="g1047"
     transform="matrix(0.99410192,0,0,0.98612017,0.03959946,0.33103011)">
    <path
       id="rect10"
       style="fill:#000000;stroke:none;stroke-width:0.268506"
       d="M -0.02868082,-0.0506429 V 10.649479 H 0.58807523 A 15.497981,12.307487 0 0 1 15.817603,0.62270099 15.497981,12.307487 0 0 1 31.04713,10.649479 h 0.674189 V -0.0506429 Z" />
    <path
       id="path1061"
       style="fill:none;stroke:#000000;stroke-width:0.414479;stroke-miterlimit:4;stroke-dasharray:none"
       d="m 19.891606,9.687852 c 0,-0.6041155 -3.718949,-2.0588116 -3.718949,-2.0588116 0,0 -3.718949,1.4546963 -3.718949,2.0588116" />
    <path
       style="fill:none;stroke:#000000;stroke-width:0.557742;stroke-linecap:butt;stroke-linejoin:miter;stroke-miterlimit:4;stroke-dasharray:none;stroke-opacity:1"
       d="m 10.308935,2.4437689 4.775227,2.0145682 v 0 L 15.00942,2.4588578"
       id="path1322" />
    <path
       id="path16"
       style="fill:#ffff00;stroke:#000000;stroke-width:0.239461"
       d="m 28.081214,8.815592 a 3.1671646,2.6058779 0 0 0 -1.583583,-2.256757 3.1671646,2.6058779 0 0 0 -3.167164,0 3.1671646,2.6058779 0 0 0 -1.583583,2.256757 z" />
    <path
       id="path18"
       style="fill:#ffff00;stroke:#000000;stroke-width:0.239461"
       d="m 11.025263,9.020073 a 3.1671646,2.6058779 0 0 0 -1.5835817,-2.256757 3.1671646,2.6058779 0 0 0 -3.1671645,0 3.1671646,2.6058779 0 0 0 -1.5835822,2.256757 z" />
    <path
       id="path20"
       style="fill:#ff0000;stroke:#000000;stroke-width:0.239461"
       d="M 8.0227823,7.818685 A 1.0001571,0.86862594 0 0 1 7.0226252,8.687311 1.0001571,0.86862594 0 0 1 6.022468,7.818685 1.0001571,0.86862594 0 0 1 7.0226252,6.95006 1.0001571,0.86862594 0 0 1 8.0227823,7.818685 Z" />
    <path
       id="ellipse22"
       style="fill:#ff0000;stroke:#000000;stroke-width:0.239461"
       d="M 26.011542,7.745152 A 1.0001571,0.86862594 0 0 1 25.011385,8.613778 1.0001571,0.86862594 0 0 1 24.011228,7.745152 1.0001571,0.86862594 0 0 1 25.011385,6.876526 1.0001571,0.86862594 0 0 1 26.011542,7.745152 Z" />
    <path
       style="fill:none;stroke:#000000;stroke-width:0.5334;stroke-linecap:butt;stroke-linejoin:miter;stroke-miterlimit:4;stroke-dasharray:none;stroke-opacity:1"
       d="m 21.712058,2.3512923 -4.867763,2.0125146 v 0 l 0.07619,-1.997441"
       id="path1436" />
    <path
       id="rect1575"
       style="fill:none;stroke:#000000;stroke-width:0.485885;stroke-miterlimit:4;stroke-dasharray:none"
       d="M 0.21426212,-0.05233818 H 31.478376 V 27.917307 H 0.21426212 Z" />
    <path
       id="rect1955"
       style="fill:#800000;stroke:#000000;stroke-width:0.508954;stroke-miterlimit:4;stroke-dasharray:none"
       d="M 0.21426212,27.917307 H 31.644444 V 47.743564 H 0.21426212 Z" />
    <path
       id="path1957"
       style="fill:#ffffff;fill-opacity:1;stroke:#000000;stroke-width:0.732364;stroke-miterlimit:4;stroke-dasharray:none"
       d="m 25.945306,27.540211 a 9.4347277,4.6571617 0 0 1 -4.717364,4.03322 9.4347277,4.6571617 0 0 1 -9.434728,0 9.4347277,4.6571617 0 0 1 -4.7173635,-4.03322" />
    <g
       id="g147"
       transform="matrix(1,0,0,1.3442718,0,-3.6489861)">
      <path
         id="ellipse14"
         style="fill:#000000;stroke:#000000;stroke-width:0.322586"
         d="m 19.192146,12.995804 a 6.6263182,6.3252063 17.613273 0 1 3.602023,8.378898 6.6263182,6.3252063 17.613273 0 1 -8.609731,3.244178 6.6263182,6.3252063 17.613273 0 1 -3.602023,-8.378898 6.6263182,6.3252063 17.613273 0 1 8.609731,-3.244178 z" />
      <path
         id="path1438"
         style="fill:#ff0000;stroke:none;stroke-width:0.546538;stroke-miterlimit:4;stroke-dasharray:none"
         d="m 16.401964,13.265502 -0.889512,2.68845 a 1.101986,1.5144903 0 0 0 -0.09176,0.277834 l -0.07803,0.235934 0.03516,-0.0017 a 1.101986,1.5144903 0 0 0 -0.01541,0.25137 1.101986,1.5144903 0 0 0 1.101844,1.514288 1.101986,1.5144903 0 0 0 1.102177,-1.514288 1.101986,1.5144903 0 0 0 -0.02846,-0.340123 l 0.01909,-5.49e-4 -0.04052,-0.109142 a 1.101986,1.5144903 0 0 0 -0.169801,-0.457539 z" />
      <g
         id="g1238"
         transform="matrix(1.068821,0,0,0.61357502,-0.757166,11.791073)">
        <g
           id="g1219"
           transform="translate(34.858854,4.2994791)">
          <path
             id="path1196"
             style="fill:#ff0000;stroke:none;stroke-width:0.21463;stroke-miterlimit:4;stroke-dasharray:none"
             transform="scale(-1)"
             d="m 18.983856,-12.97805 a 2.918844,2.8817875 0 0 1 -1.468739,2.500989 2.918844,2.8817875 0 0 1 -2.928101,-0.01597 2.918844,2.8817875 0 0 1 -1.44067,-2.516853 l 2.918666,0.03183 z" />
          <path
             id="path1202"
             style="fill:#ff0000;stroke:none;stroke-width:0.399155;stroke-miterlimit:4;stroke-dasharray:none"
             d="m -13.165503,12.901555 a 5.4484901,5.4812775 0 0 1 -2.76024,4.767649 5.4484901,5.4812775 0 0 1 -5.484009,-0.06299 5.4484901,5.4812775 0 0 1 -2.65131,-4.829811 l 5.447069,0.125156 z" />
          <path
             id="path1206"
             style="fill:#ff0000;stroke:none;stroke-width:0.201315;stroke-miterlimit:4;stroke-dasharray:none"
             transform="scale(-1)"
             d="m 24.002833,-12.871221 a 2.6944964,2.7463996 0 0 1 -1.355849,2.383492 2.6944964,2.7463996 0 0 1 -2.703042,-0.01522 2.6944964,2.7463996 0 0 1 -1.329938,-2.39861 l 2.694332,0.03033 z" />
        </g>
        <path
           id="rect1223"
           style="fill:#ff0000;stroke:none;stroke-width:0.16852;stroke-miterlimit:4;stroke-dasharray:none"
           d="m 11.830727,15.781637 h 3.836458 v 2.778125 h -3.836458 z" />
      </g>
      <path
         id="ellipse1452"
         style="fill:#ff0000;stroke:#ff0000;stroke-width:0.225606"
         d="m 10.102815,14.40976 a 3.1583281,6.4908215 88.947388 0 1 6.145337,-1.916849 3.1583281,6.4908215 88.947388 0 1 5.831631,1.977698" />
      <path
         id="path84"
         style="fill:#ffffff;stroke:#000000;stroke-width:0.637381"
         transform="matrix(0.41469493,-0.03052806,0.01162709,1.0888224,30.065279,1.0670397)"
         d="m -32.091209,9.5085056 -4.428212,7.1524074 -3.98006,-7.4111474 z" />
      <path
         id="path86"
         style="fill:#ffffff;stroke:#000000;stroke-width:0.637381"
         transform="matrix(0.35934374,-0.02802147,0.01007517,0.99942149,30.862006,2.0146196)"
         d="m -32.091209,9.5085056 -4.428212,7.1524074 -3.98006,-7.4111474 z" />
      <path
         id="path88"
         style="fill:#ffffff;stroke:#000000;stroke-width:0.637381"
         transform="matrix(0.25876538,-0.0213948,0.00725518,0.76307313,29.604901,5.071078)"
         d="m -32.091209,9.5085056 -4.428212,7.1524074 -3.98006,-7.4111474 z" />
      <path
         id="path90"
         style="fill:#ffffff;stroke:#000000;stroke-width:0.637381"
         transform="matrix(0.25876538,-0.02108175,0.00725518,0.75190786,21.998096,5.5039828)"
         d="m -32.091209,9.5085056 -4.428212,7.1524074 -3.98006,-7.4111474 z" />
      <path
         id="path106"
         style="fill:#ffffff;stroke:#000000;stroke-width:0.637381"
         transform="matrix(0.1175308,0.00934704,0.00329529,-0.3333745,17.582598,28.364826)"
         d="m -32.091209,9.5085056 -4.428212,7.1524074 -3.98006,-7.4111474 z" />
      <path
         id="path108"
         style="fill:#ffffff;stroke:#000000;stroke-width:0.637381"
         transform="matrix(0.1175308,0.00934704,0.00329529,-0.3333745,19.325824,28.840251)"
         d="m -32.091209,9.5085056 -4.428212,7.1524074 -3.98006,-7.4111474 z" />
      <path
         id="path110"
         style="fill:#ffffff;stroke:#000000;stroke-width:0.637381"
         transform="matrix(0.1175308,0.00934704,0.00329529,-0.3333745,21.227525,29.077964)"
         d="m -32.091209,9.5085056 -4.428212,7.1524074 -3.98006,-7.4111474 z" />
      <path
         id="path112"
         style="fill:#ffffff;stroke:#000000;stroke-width:0.637381"
         transform="matrix(0.1175308,0.00934704,0.00329529,-0.3333745,22.970751,28.602539)"
         d="m -32.091209,9.5085056 -4.428212,7.1524074 -3.98006,-7.4111474 z" />
      <path
         id="path114"
         style="fill:#ffffff;stroke:#000000;stroke-width:0.637381"
         transform="matrix(0.1175308,0.00934704,0.00329529,-0.3333745,24.555502,27.889401)"
         d="m -32.091209,9.5085056 -4.428212,7.1524074 -3.98006,-7.4111474 z" />
      <path
         id="path116"
         style="fill:#ffffff;stroke:#000000;stroke-width:0.637381"
         transform="matrix(0.16460899,0.00934704,0.00461525,-0.3333745,25.45808,28.594874)"
         d="m -32.091209,9.5085056 -4.428212,7.1524074 -3.98006,-7.4111474 z" />
      <path
         id="path118"
         style="fill:#ffffff;stroke:#000000;stroke-width:0.637381"
         transform="matrix(0.16980209,0.00934704,0.00476085,-0.3333745,23.923824,29.070299)"
         d="m -32.091209,9.5085056 -4.428212,7.1524074 -3.98006,-7.4111474 z" />
      <path
         id="path120"
         style="fill:#ffffff;stroke:#000000;stroke-width:0.637381"
         transform="matrix(0.16428738,0.00934704,0.00460623,-0.3333745,21.957374,29.343151)"
         d="m -32.091209,9.5085056 -4.428212,7.1524074 -3.98006,-7.4111474 z" />
      <path
         id="path122"
         style="fill:#ffffff;stroke:#000000;stroke-width:0.637381"
         transform="matrix(0.16428738,0.00934704,0.00460623,-0.3333745,20.095291,28.907344)"
         d="m -32.091209,9.5085056 -4.428212,7.1524074 -3.98006,-7.4111474 z" />
      <path
         id="ellipse1445"
         style="fill:#800080;stroke:#800080;stroke-width:0.380381"
         d="m 16.304294,10.599168 a 7.9723516,7.3100001 81.000541 0 0 -6.601147,4.741311 7.9723516,7.3100001 81.000541 0 0 3.998722,10.493417 7.9723516,7.3100001 81.000541 0 0 9.559107,-4.062802 7.9723516,7.3100001 81.000541 0 0 -3.999238,-10.493416 7.9723516,7.3100001 81.000541 0 0 -2.957444,-0.67851 z m 0.09767,1.794721 a 6.626318,6.3252063 17.613272 0 1 2.675289,0.541569 6.626318,6.3252063 17.613272 0 1 3.601847,8.379333 6.626318,6.3252063 17.613272 0 1 -8.609293,3.24373 6.626318,6.3252063 17.613272 0 1 -3.602365,-8.378817 6.626318,6.3252063 17.613272 0 1 5.934522,-3.785815 z" />
    </g>
    <g
       id="g981">
      <path
         id="path149"
         style="fill:none;stroke:#000000;stroke-width:0.483318"
         transform="matrix(0.17585647,-0.98441582,0.54570757,0.83797569,0,0)"
         d="M 20.362568,39.199669 A 6.337234,4.4990463 0 0 1 15.840793,43.51015 6.337234,4.4990463 0 0 1 8.7282668,41.669358" />
      <path
         id="path151"
         style="fill:none;stroke:#000000;stroke-width:0.596388;stroke-miterlimit:4;stroke-dasharray:none"
         transform="matrix(0.11859388,-0.99294284,0.39920088,0.91686349,0,0)"
         d="m 37.552278,57.499134 a 4.5872245,3.0022242 0 0 1 -3.2731,2.876394 4.5872245,3.0022242 0 0 1 -5.148422,-1.228365" />
      <path
         id="path153"
         style="fill:none;stroke:#000000;stroke-width:0.615214;stroke-miterlimit:4;stroke-dasharray:none"
         transform="matrix(0.10830405,-0.99411782,0.36910689,0.92938695,0,0)"
         d="m 43.937234,65.850525 a 3.1345761,2.026253 0 0 1 -2.236599,1.941328 3.1345761,2.026253 0 0 1 -3.518057,-0.829045" />
    </g>
    <g
       id="g989"
       transform="matrix(-1,0,0,1,32.925615,-0.22411765)">
      <path
         id="path983"
         style="fill:none;stroke:#000000;stroke-width:0.483318"
         transform="matrix(0.17585647,-0.98441582,0.54570757,0.83797569,0,0)"
         d="M 20.362568,39.199669 A 6.337234,4.4990463 0 0 1 15.840793,43.51015 6.337234,4.4990463 0 0 1 8.7282668,41.669358" />
      <path
         id="path985"
         style="fill:none;stroke:#000000;stroke-width:0.596388;stroke-miterlimit:4;stroke-dasharray:none"
         transform="matrix(0.11859388,-0.99294284,0.39920088,0.91686349,0,0)"
         d="m 37.552278,57.499134 a 4.5872245,3.0022242 0 0 1 -3.2731,2.876394 4.5872245,3.0022242 0 0 1 -5.148422,-1.228365" />
      <path
         id="path987"
         style="fill:none;stroke:#000000;stroke-width:0.615214;stroke-miterlimit:4;stroke-dasharray:none"
         transform="matrix(0.10830405,-0.99411782,0.36910689,0.92938695,0,0)"
         d="m 43.937234,65.850525 a 3.1345761,2.026253 0 0 1 -2.236599,1.941328 3.1345761,2.026253 0 0 1 -3.518057,-0.829045" />
    </g>
    <path
       id="path991"
       style="fill:#000000;stroke:#000000;stroke-width:0.195537;stroke-miterlimit:4;stroke-dasharray:none"
       transform="rotate(30.099995)"
       d="M 18.087721,0.22841592 A 0.23301885,0.94615674 0 0 1 17.854702,1.1745727 0.23301885,0.94615674 0 0 1 17.621683,0.22841592 0.23301885,0.94615674 0 0 1 17.854702,-0.71774082 0.23301885,0.94615674 0 0 1 18.087721,0.22841592 Z" />
    <path
       id="ellipse993"
       style="fill:#000000;stroke:#000000;stroke-width:0.195537;stroke-miterlimit:4;stroke-dasharray:none"
       transform="matrix(-0.86515146,0.50151066,0.50151066,0.86515146,0,0)"
       d="m -9.8131447,16.401979 a 0.23301885,0.94615674 0 0 1 -0.2330193,0.946157 0.23301885,0.94615674 0 0 1 -0.233018,-0.946157 0.23301885,0.94615674 0 0 1 0.233018,-0.946156 0.23301885,0.94615674 0 0 1 0.2330193,0.946156 z" />
    <path
       id="path1305"
       style="fill:none;stroke:#000000;stroke-width:0.711729;stroke-miterlimit:4;stroke-dasharray:none"
       d="M 3.7364426,29.644152 A 10.849016,15.451539 88.585011 0 0 2.0734568,40.452621 10.849016,15.451539 88.585011 0 0 14.543586,46.701831 10.849016,15.451539 88.585011 0 0 28.676694,42.142575" />
    <path
       id="path995"
       style="fill:none;stroke:#000000;stroke-width:0.728927;stroke-miterlimit:4;stroke-dasharray:none"
       d="m 4.7336021,28.577563 a 9.2443391,12.123689 88.138202 0 0 -1.3047363,9.2104 9.2443391,12.123689 88.138202 0 0 9.7837472,5.325243 9.2443391,12.123689 88.138202 0 0 11.088476,-3.885154" />
    <path
       id="path997"
       style="fill:none;stroke:#000000;stroke-width:0.643996;stroke-miterlimit:4;stroke-dasharray:none"
       d="m 4.7336021,28.205615 a 13.714335,6.4316068 1.7984449 0 0 -0.5194223,6.41674 13.714335,6.4316068 1.7984449 0 0 11.6041672,3.710011 13.714335,6.4316068 1.7984449 0 0 12.123585,-2.706724" />
  </g>
</svg>
