<?xml version="1.0" encoding="UTF-8" standalone="no"?>
<svg
   xmlns:dc="http://purl.org/dc/elements/1.1/"
   xmlns:cc="http://creativecommons.org/ns#"
   xmlns:rdf="http://www.w3.org/1999/02/22-rdf-syntax-ns#"
   xmlns:svg="http://www.w3.org/2000/svg"
   xmlns="http://www.w3.org/2000/svg"
   width="100"
   height="190"
   viewBox="0 0 26.458333 50.270835"
   version="1.1"
   id="svg8">
  <defs
     id="defs2" />
  <g
     id="g174"
     transform="matrix(0.99999838,0,0,1.0002283,-2.0205755e-4,-0.00574975)">
    <path
       id="rect115"
       style="fill:#6f917c;fill-opacity:1;stroke:#000000;stroke-width:0.324644"
       d="M 0.38240561,0.25993246 H 26.197391 V 25.965096 H 0.38240561 Z" />
    <path
       id="rect1023"
       style="fill:#6f917c;fill-opacity:1;stroke:#000000;stroke-width:0.418176;stroke-miterlimit:4;stroke-dasharray:none"
       d="M 0.51110796,36.354017 H 26.249469 V 50.094379 H 0.51110796 Z" />
    <path
       id="rect14"
       style="fill:#cccccc;stroke:#000000;stroke-width:0.31846"
       d="M 0.38261698,25.965097 H 26.19739 v 8.41839 H 0.38261698 Z" />
    <path
       style="fill:#ffffff;stroke:#ffffff;stroke-width:0.402495;stroke-linecap:butt;stroke-linejoin:miter;stroke-miterlimit:4;stroke-dasharray:none;stroke-opacity:1"
       d="m 12.943469,40.401226 -0.08561,9.716773"
       id="path1070" />
    <path
       id="rect1072"
       style="fill:#a05a2c;fill-opacity:1;stroke:#000000;stroke-width:0.351098;stroke-miterlimit:4;stroke-dasharray:none"
       d="M 0.38261698,34.383487 H 26.19739 v 1.970528 H 0.38261698 Z" />
    <path
       id="rect995"
       style="fill:#333333;fill-opacity:1;stroke:#000000;stroke-width:0.327673"
       d="M 0.16406008,36.433411 V 50.094376 H 1.4164992 l 0.6641264,-9.593144 0.7566188,9.593144 h 0.1688115 l 0.8693283,-5.81662 0.989619,5.81662 H 8.656184 l 0.4154581,-5.108747 0.4725709,5.108747 h 6.11158 l 0.472571,-5.81662 0.538275,5.81662 h 0.08997 l 0.875899,-10.773278 0.996695,10.773278 h 2.02422 l -0.352785,-7.505101 1.682049,7.505101 h 4.266785 V 36.433411 Z" />
    <path
       id="rect1049"
       style="fill:#782121;fill-opacity:1;stroke:#000000;stroke-width:0.359394;stroke-miterlimit:4;stroke-dasharray:none"
       d="m 12.199708,30.023373 -6.5669669,0.156218 0.1344429,5.877972 0.8996535,1.395124 0.5322109,-4.230224 0.8339486,6.348171 1.1781418,1.827167 1.1225452,-2.013287 0.567085,-4.509661 0.371486,2.826338 1.002761,-1.798814 0.05964,-0.0016 z" />
    <path
       id="rect1037"
       style="fill:#782121;fill-opacity:1;stroke:#000000;stroke-width:0.338202;stroke-miterlimit:4;stroke-dasharray:none"
       d="m 3.4934803,26.084877 -0.038496,2.025555 1.2157416,0.02404 -0.038496,2.025554 1.000289,0.01978 3.6066483,3.277417 4.0974098,-3.125057 0.727702,0.01439 0.0385,-2.025554 1.215745,0.02405 0.0385,-2.025556 z" />
    <path
       id="ellipse967"
       style="fill:#0b2822;fill-opacity:1;stroke:none;stroke-width:0.461611;stroke-miterlimit:4;stroke-dasharray:none"
       d="M 23.366065,22.775083 A 10.825645,2.5461692 0 0 1 12.54042,25.321252 10.825645,2.5461692 0 0 1 1.7147754,22.775083 10.825645,2.5461692 0 0 1 12.54042,20.228914 10.825645,2.5461692 0 0 1 23.366065,22.775083 Z" />
    <path
       id="ellipse979"
       style="fill:#800000;fill-opacity:1;stroke-width:0.365614"
       d="M 10.631558,10.325013 A 3.5863415,3.5403045 0 0 1 7.0452168,13.865318 3.5863415,3.5403045 0 0 1 3.4588753,10.325013 3.5863415,3.5403045 0 0 1 7.0452168,6.7847087 3.5863415,3.5403045 0 0 1 10.631558,10.325013 Z" />
    <path
       id="rect10"
       style="fill:#0b2822;fill-opacity:1;stroke:#000000;stroke-width:1.63177"
       d="M 1.4453125,0.98242188 V 34.544922 L 9.6289062,18.626953 24.113281,29.007812 16.855469,12.626953 34.214844,7.5136719 16.830078,3.3066406 17.824219,0.98242188 Z"
       transform="scale(0.26458334)" />
    <path
       id="ellipse981"
       style="fill:#d5ffe6;fill-opacity:1;stroke-width:0.489862"
       d="M 10.515872,10.974068 A 3.2392764,1.9471674 0 0 1 7.2765958,12.921235 3.2392764,1.9471674 0 0 1 4.0373194,10.974068 3.2392764,1.9471674 0 0 1 7.2765958,9.0269003 3.2392764,1.9471674 0 0 1 10.515872,10.974068 Z" />
    <g
       id="g956"
       transform="matrix(0.97805394,0,0,0.99768211,-0.35883907,-0.41390975)">
      <path
         id="ellipse894"
         style="fill:#552200;stroke:#000000;stroke-width:0.31152;stroke-miterlimit:4;stroke-dasharray:none"
         d="m 9.8093399,11.481025 a 1.0686373,1.3521193 0 0 1 -1.0686373,1.352119 1.0686373,1.3521193 0 0 1 -1.0686372,-1.352119 1.0686373,1.3521193 0 0 1 1.0686372,-1.35212 1.0686373,1.3521193 0 0 1 1.0686373,1.35212 z" />
      <g
         id="g882"
         transform="matrix(1,0,0,1.8849797,0.28348215,-6.8618048)">
        <path
           style="fill:none;stroke:#000000;stroke-width:0.375708;stroke-linecap:butt;stroke-linejoin:miter;stroke-miterlimit:4;stroke-dasharray:none;stroke-opacity:1"
           d="M 5.3977332,9.3536973 C 9.4994946,12.059286 10.811129,8.8190236 10.827238,8.8174292"
           id="path864" />
        <path
           style="fill:none;stroke:#000000;stroke-width:0.303742;stroke-linecap:butt;stroke-linejoin:miter;stroke-miterlimit:4;stroke-dasharray:none;stroke-opacity:1"
           d="M 4.0313889,9.8587696 C 7.9301528,8.1199195 7.1103668,9.5910559 10.859426,8.7702468"
           id="path878" />
      </g>
    </g>
    <path
       id="rect980"
       style="fill:#9dac93;fill-opacity:1;stroke:#000000;stroke-width:0.302376;stroke-miterlimit:4;stroke-dasharray:none"
       d="m 12.129107,9.8955932 c -0.797071,0 -1.438942,0.7425478 -1.438942,1.6652818 v 4.1003 H 9.5602985 c -0.2591364,0 -0.4676233,0.241355 -0.4676233,0.541344 v 2.051956 c 0,0.299988 0.2084869,0.541859 0.4676233,0.541859 h 1.3708035 c 0.257392,0.447654 0.696682,0.741901 1.198005,0.741901 h 1.787655 c 0.540157,0 1.00803,-0.34153 1.254121,-0.848624 h 1.3472 c 0.262895,0 0.474749,-0.244735 0.474749,-0.549077 v -2.081858 c 0,-0.304344 -0.211854,-0.549593 -0.474749,-0.549593 h -1.162822 v -3.948208 c 0,-0.922734 -0.641425,-1.6652818 -1.438499,-1.6652818 z" />
    <path
       style="fill:#000000;stroke:#000000;stroke-width:0.107131px;stroke-linecap:butt;stroke-linejoin:miter;stroke-opacity:1"
       d="M 9.7171546,18.618478 C 10.195141,14.962471 11.852452,18.864029 12.29,18.914344"
       id="path960" />
    <path
       style="fill:#000000;stroke:#000000;stroke-width:0.106312px;stroke-linecap:butt;stroke-linejoin:miter;stroke-opacity:1"
       d="m 16.399718,18.692329 c -0.454377,-3.787403 -2.029835,0.254376 -2.445772,0.306499"
       id="path1021" />
    <path
       id="path910"
       style="fill:none;stroke:#000000;stroke-width:0.16417;stroke-miterlimit:4;stroke-dasharray:none"
       d="m 17.377755,3.6880221 a 2.0173801,1.7240831 0 0 1 -2.01738,1.7240831 2.0173801,1.7240831 0 0 1 -2.01738,-1.7240831 2.0173801,1.7240831 0 0 1 2.01738,-1.7240831 2.0173801,1.7240831 0 0 1 2.01738,1.7240831 z" />
    <path
       id="path71"
       style="fill:#aa0000;fill-opacity:1;stroke:#000000;stroke-width:0.200459;stroke-miterlimit:4;stroke-dasharray:none"
       d="M 25.131715,5.1882524 A 6.1945828,2.884796 8.3154341 0 1 17.841166,6.59522 6.1945828,2.884796 8.3154341 0 1 13.115012,2.605031 a 6.1945828,2.884796 8.3154341 0 1 7.29055,-1.4069674 6.1945828,2.884796 8.3154341 0 1 4.726153,3.9901888 z" />
    <g
       id="g940"
       style="fill:#bc5fd3"
       transform="matrix(0.97805394,0,0,0.99768211,0.10391469,0.05813083)">
      <path
         id="path912"
         style="fill:#bc5fd3;stroke:#000000;stroke-width:0.193146;stroke-miterlimit:4;stroke-dasharray:none"
         d="M 19.822596,3.6592343 A 1.9237118,2.2373605 0 0 1 17.898884,5.8965948 1.9237118,2.2373605 0 0 1 15.975172,3.6592343 1.9237118,2.2373605 0 0 1 17.898884,1.4218738 1.9237118,2.2373605 0 0 1 19.822596,3.6592343 Z" />
      <path
         id="ellipse914"
         style="fill:#bc5fd3;stroke:#000000;stroke-width:0.196131;stroke-miterlimit:4;stroke-dasharray:none"
         d="M 21.953913,3.9937928 A 1.9849491,2.2358682 0 0 1 19.968964,6.229661 1.9849491,2.2358682 0 0 1 17.984015,3.9937928 1.9849491,2.2358682 0 0 1 19.968964,1.7579246 1.9849491,2.2358682 0 0 1 21.953913,3.9937928 Z" />
      <path
         id="ellipse916"
         style="fill:#bc5fd3;stroke:#000000;stroke-width:0.166194;stroke-miterlimit:4;stroke-dasharray:none"
         d="M 17.661439,3.6383245 A 2.0626471,1.7280886 0 0 1 15.598792,5.3664131 2.0626471,1.7280886 0 0 1 13.536145,3.6383245 2.0626471,1.7280886 0 0 1 15.598792,1.9102359 2.0626471,1.7280886 0 0 1 17.661439,3.6383245 Z" />
      <path
         id="ellipse918"
         style="fill:#bc5fd3;stroke:#000000;stroke-width:0.166194;stroke-miterlimit:4;stroke-dasharray:none"
         d="M 23.892592,4.9347391 A 2.0626471,1.7280886 0 0 1 21.829945,6.6628277 2.0626471,1.7280886 0 0 1 19.767298,4.9347391 2.0626471,1.7280886 0 0 1 21.829945,3.2066505 2.0626471,1.7280886 0 0 1 23.892592,4.9347391 Z" />
      <path
         id="ellipse920"
         style="fill:#bc5fd3;stroke:none;stroke-width:0.147613;stroke-miterlimit:4;stroke-dasharray:none"
         transform="matrix(0.97108109,0.23874991,-0.56417786,0.82565328,0,0)"
         d="M 24.138556,0.21550521 A 4.827796,2.0071182 0 0 1 19.31076,2.2226234 4.827796,2.0071182 0 0 1 14.482965,0.21550521 4.827796,2.0071182 0 0 1 19.31076,-1.791613 4.827796,2.0071182 0 0 1 24.138556,0.21550521 Z" />
    </g>
    <path
       id="path942"
       style="fill:#bc5fd3;stroke:#000000;stroke-width:0.190793;stroke-miterlimit:4;stroke-dasharray:none"
       d="M 18.065105,4.5667539 A 1.3016679,1.2802401 64.456635 0 1 16.993647,5.2681427 1.3016679,1.2802401 64.456635 0 1 15.844763,4.6732791 1.3016679,1.2802401 64.456635 0 1 15.767337,3.3770268" />
    <path
       id="path944"
       style="fill:#bc5fd3;stroke:#000000;stroke-width:0.231739;stroke-miterlimit:4;stroke-dasharray:none"
       d="M 21.752455,4.1383215 A 1.2690406,1.9372495 63.771151 0 1 20.600114,5.4762478 1.2690406,1.9372495 63.771151 0 1 18.79719,5.7219215 1.2690406,1.9372495 63.771151 0 1 18.146609,4.6296688" />
    <path
       id="rect949"
       style="fill:#a0892c;fill-opacity:1;stroke:#000000;stroke-width:0.190793;stroke-miterlimit:4;stroke-dasharray:none"
       d="m 6.6113887,20.650902 c 0.5928453,0 1.070118,0.486851 1.070118,1.091593 v 0.708062 c 0,0.604743 -0.4772727,1.091593 -1.070118,1.091593 -0.5928455,0 -1.0701182,-0.48685 -1.0701182,-1.091593 v -0.708062 c 0,-0.604742 0.4772727,-1.091593 1.0701182,-1.091593 z" />
    <path
       id="rect951"
       style="fill:#a0892c;stroke:#000000;stroke-width:0.17765;stroke-miterlimit:4;stroke-dasharray:none"
       d="m 10.679549,22.886457 h 0.308934 c 0.510876,0 0.922158,0.419537 0.922158,0.940664 v 0.61016 c 0,0.521128 -0.411282,0.940664 -0.922158,0.940664 h -0.308934 c -0.510875,0 -0.9221571,-0.419536 -0.9221571,-0.940664 v -0.61016 c 0,-0.521127 0.4112821,-0.940664 0.9221571,-0.940664 z" />
    <path
       id="rect953"
       style="fill:#a0892c;stroke:#000000;stroke-width:0.186983;stroke-miterlimit:4;stroke-dasharray:none"
       d="m 14.898643,20.175175 h 0.08463 c 0.569405,0 1.027805,0.467601 1.027805,1.048432 v 0.680063 c 0,0.58083 -0.4584,1.048431 -1.027805,1.048431 h -0.08463 c -0.569403,0 -1.027804,-0.467601 -1.027804,-1.048431 v -0.680063 c 0,-0.580831 0.458401,-1.048432 1.027804,-1.048432 z" />
    <path
       id="rect955"
       style="fill:#a0892c;stroke:#000000;stroke-width:0.135105;stroke-miterlimit:4;stroke-dasharray:none"
       d="m 17.95273,23.691044 h 1.149139 c 0.289807,0 0.523117,0.237992 0.523117,0.533615 v 0.34613 c 0,0.295623 -0.23331,0.533616 -0.523117,0.533616 H 17.95273 c -0.289807,0 -0.523118,-0.237993 -0.523118,-0.533616 v -0.34613 c 0,-0.295623 0.233311,-0.533615 0.523118,-0.533615 z" />
    <path
       id="path965"
       style="fill:none;stroke:#000000;stroke-width:0.644892;stroke-miterlimit:4;stroke-dasharray:none"
       d="M 23.470743,22.834089 A 10.814633,2.5939413 0 0 1 12.65611,25.42803 10.814633,2.5939413 0 0 1 1.8414776,22.834089 10.814633,2.5939413 0 0 1 12.65611,20.240147 10.814633,2.5939413 0 0 1 23.470743,22.834089 Z" />
    <path
       id="path957"
       style="fill:#008080;stroke:#000000;stroke-width:0.32069;stroke-miterlimit:4;stroke-dasharray:none"
       d="m 22.342551,22.358299 -1.664609,5.165778 h -0.03563 c -2e-6,0.03609 2.61e-4,0.07214 7.67e-4,0.108207 l -0.01592,0.0494 0.01687,-2.31e-4 c 0.02635,1.201449 0.351395,2.292502 0.862134,2.893848 0.534577,0.62938 1.193203,0.62938 1.72778,0 0.516777,-0.608544 0.842978,-1.717814 0.86281,-2.934052 h 0.0011 l -8.94e-4,-0.0029 c 6.27e-4,-0.03804 8.94e-4,-0.07611 8.94e-4,-0.114182 h -0.03887 z" />
    <path
       id="path934"
       style="fill:#800000;fill-opacity:1;stroke-width:0.362653"
       d="m 23.365076,11.741957 a 3.5284973,3.5403045 0 0 1 -3.528497,3.540305 3.5284973,3.5403045 0 0 1 -3.528498,-3.540305 3.5284973,3.5403045 0 0 1 3.528498,-3.5403049 3.5284973,3.5403045 0 0 1 3.528497,3.5403049 z" />
    <path
       id="path977"
       style="fill:#d5ffe6;fill-opacity:1;stroke-width:0.439122"
       d="m 21.853338,11.565216 a 2.60299,1.9471674 0 0 1 -2.60299,1.947167 2.60299,1.9471674 0 0 1 -2.602989,-1.947167 2.60299,1.9471674 0 0 1 2.602989,-1.9471676 2.60299,1.9471674 0 0 1 2.60299,1.9471676 z" />
    <g
       id="g975"
       transform="matrix(0.97805394,0,0,0.99768211,0.45098004,0.29524721)">
      <g
         id="g965"
         transform="matrix(-0.72695137,0,0,0.52470211,54.644647,-0.724888)"
         style="stroke-width:0.702845;stroke-miterlimit:4;stroke-dasharray:none">
        <path
           style="fill:none;stroke:#000000;stroke-width:0.702845;stroke-linecap:butt;stroke-linejoin:miter;stroke-miterlimit:4;stroke-dasharray:none;stroke-opacity:1"
           d="m 44.73521,22.774569 c 5.277224,-7.811286 7.482781,0.0912 7.505049,0.09147"
           id="path958" />
        <path
           style="fill:none;stroke:#000000;stroke-width:0.702845;stroke-linecap:butt;stroke-linejoin:miter;stroke-miterlimit:4;stroke-dasharray:none;stroke-opacity:1"
           d="m 44.73521,22.774569 c 5.277224,7.811286 7.482781,-0.0912 7.505049,-0.09147"
           id="path963" />
      </g>
      <g
         id="g971">
        <g
           id="g969">
          <path
             id="path967"
             style="fill:#552200;stroke:#000000;stroke-width:0.31152;stroke-miterlimit:4;stroke-dasharray:none"
             d="m 20.203685,11.481025 a 1.0686373,1.3521193 0 0 1 -1.068637,1.352119 1.0686373,1.3521193 0 0 1 -1.068637,-1.352119 1.0686373,1.3521193 0 0 1 1.068637,-1.35212 1.0686373,1.3521193 0 0 1 1.068637,1.35212 z" />
        </g>
      </g>
      <path
         style="fill:none;stroke:#000000;stroke-width:0.20697;stroke-linecap:butt;stroke-linejoin:miter;stroke-miterlimit:4;stroke-dasharray:none;stroke-opacity:1"
         d="m 21.79941,11.244157 c -3.60782,-2.460889 -5.115667,0.02873 -5.130891,0.02881"
         id="path973" />
    </g>
    <path
       style="fill:none;stroke:#000000;stroke-width:0.457034;stroke-linecap:butt;stroke-linejoin:miter;stroke-miterlimit:4;stroke-dasharray:none;stroke-opacity:1"
       d="M 13.515092,41.951732 12.85786,50.117999"
       id="path997" />
  </g>
</svg>
