<?xml version="1.0" encoding="UTF-8" standalone="no"?>
<svg
   xmlns:dc="http://purl.org/dc/elements/1.1/"
   xmlns:cc="http://creativecommons.org/ns#"
   xmlns:rdf="http://www.w3.org/1999/02/22-rdf-syntax-ns#"
   xmlns:svg="http://www.w3.org/2000/svg"
   xmlns="http://www.w3.org/2000/svg"
   width="110"
   height="200"
   viewBox="0 0 29.104166 52.916667"
   version="1.1"
   id="svg8">
  <defs
     id="defs2" />
  <g
     id="g2270"
     transform="matrix(0.9917729,0,0,0.99321732,0.03586282,0.1796843)">
    <path
       id="path1181"
       style="fill:#784421;stroke:#000000;stroke-width:0.462989"
       d="M 0.21895683,27.187329 H 28.860136 v 25.71192 H 0.21895683 Z" />
    <g
       id="g1199"
       transform="matrix(-1.23618,-0.25695711,0.23476732,-1.4545326,63.137893,87.905587)">
      <path
         id="path1193"
         style="fill:#008000;fill-opacity:1;stroke:#000000;stroke-width:0.18621;stroke-miterlimit:4;stroke-dasharray:none"
         transform="matrix(-0.77564175,-0.63117341,-0.63117341,0.77564175,0,0)"
         d="m -45.481186,-6.6152291 h 3.827009 v 3.0109794 h -3.827009 z" />
      <g
         aria-label="$"
         transform="matrix(0.7655067,-0.85208296,0.64943077,0.58344507,0,0)"
         id="g1197"
         style="font-style:normal;font-weight:normal;font-size:2.76033px;line-height:1.25;font-family:sans-serif;fill:#ffff00;fill-opacity:1;stroke:#ff0000;stroke-width:0.0690081">
        <path
           d="M 6.4802565,50.223892 H 6.3454748 l -0.00135,-0.405693 q -0.1415209,-0.0027 -0.2830417,-0.03235 -0.1415208,-0.031 -0.2843895,-0.09165 v -0.242607 q 0.1374774,0.08626 0.2776504,0.130738 0.1415208,0.04313 0.2911286,0.04448 v -0.614606 q -0.2978655,-0.04852 -0.433995,-0.164433 -0.1347818,-0.115913 -0.1347818,-0.318085 0,-0.219694 0.1469121,-0.346389 0.1469121,-0.126695 0.4218669,-0.145565 v -0.316737 h 0.1347817 v 0.312694 q 0.125347,0.0054 0.2426071,0.02696 0.1172601,0.02022 0.229129,0.05661 v 0.235868 q -0.1118689,-0.05661 -0.2304768,-0.08761 -0.1172601,-0.031 -0.2412593,-0.03639 v 0.575518 q 0.3059545,0.04717 0.450171,0.168478 0.1442165,0.121303 0.1442165,0.331563 0,0.227781 -0.1536512,0.359867 -0.1523034,0.130738 -0.4407363,0.150956 z M 6.3454748,48.78038 v -0.552605 q -0.1563468,0.01752 -0.2385637,0.08896 -0.082217,0.07143 -0.082217,0.190042 0,0.115912 0.075478,0.180607 0.076826,0.0647 0.2453028,0.093 z m 0.1347817,0.258781 v 0.583605 q 0.1711728,-0.02291 0.2574331,-0.09704 0.087608,-0.07413 0.087608,-0.195434 0,-0.118608 -0.083565,-0.188694 -0.082217,-0.07009 -0.2614766,-0.102434 z"
           style="fill:#ffff00;stroke:#ff0000;stroke-width:0.0690081"
           id="path1195" />
      </g>
    </g>
    <g
       id="g1223"
       transform="matrix(-0.24061376,-1.2866333,1.269072,-0.22231303,-12.421791,96.084834)">
      <path
         id="path1217"
         style="fill:#008000;fill-opacity:1;stroke:#000000;stroke-width:0.18621;stroke-miterlimit:4;stroke-dasharray:none"
         transform="matrix(-0.77564175,-0.63117341,-0.63117341,0.77564175,0,0)"
         d="m -45.481186,-6.6152291 h 3.827009 v 3.0109794 h -3.827009 z" />
      <g
         aria-label="$"
         transform="matrix(0.7655067,-0.85208296,0.64943077,0.58344507,0,0)"
         id="g1221"
         style="font-style:normal;font-weight:normal;font-size:2.76033px;line-height:1.25;font-family:sans-serif;fill:#ffff00;fill-opacity:1;stroke:#ff0000;stroke-width:0.0690081">
        <path
           d="M 6.4802565,50.223892 H 6.3454748 l -0.00135,-0.405693 q -0.1415209,-0.0027 -0.2830417,-0.03235 -0.1415208,-0.031 -0.2843895,-0.09165 v -0.242607 q 0.1374774,0.08626 0.2776504,0.130738 0.1415208,0.04313 0.2911286,0.04448 v -0.614606 q -0.2978655,-0.04852 -0.433995,-0.164433 -0.1347818,-0.115913 -0.1347818,-0.318085 0,-0.219694 0.1469121,-0.346389 0.1469121,-0.126695 0.4218669,-0.145565 v -0.316737 h 0.1347817 v 0.312694 q 0.125347,0.0054 0.2426071,0.02696 0.1172601,0.02022 0.229129,0.05661 v 0.235868 q -0.1118689,-0.05661 -0.2304768,-0.08761 -0.1172601,-0.031 -0.2412593,-0.03639 v 0.575518 q 0.3059545,0.04717 0.450171,0.168478 0.1442165,0.121303 0.1442165,0.331563 0,0.227781 -0.1536512,0.359867 -0.1523034,0.130738 -0.4407363,0.150956 z M 6.3454748,48.78038 v -0.552605 q -0.1563468,0.01752 -0.2385637,0.08896 -0.082217,0.07143 -0.082217,0.190042 0,0.115912 0.075478,0.180607 0.076826,0.0647 0.2453028,0.093 z m 0.1347817,0.258781 v 0.583605 q 0.1711728,-0.02291 0.2574331,-0.09704 0.087608,-0.07413 0.087608,-0.195434 0,-0.118608 -0.083565,-0.188694 -0.082217,-0.07009 -0.2614766,-0.102434 z"
           style="fill:#ffff00;stroke:#ff0000;stroke-width:0.0690081"
           id="path1219" />
      </g>
    </g>
    <path
       id="path1233"
       style="fill:#88aa00;stroke:#000000;stroke-width:0.475046"
       d="M 0.20153596,0.08989707 H 28.830651 V 27.169908 H 0.20153596 Z" />
    <g
       id="g1256"
       transform="matrix(-0.14060223,-1.7886758,1.1513452,-0.21233597,-16.902179,115.18587)">
      <path
         id="path1250"
         style="fill:#008000;fill-opacity:1;stroke:#000000;stroke-width:0.18621;stroke-miterlimit:4;stroke-dasharray:none"
         transform="matrix(-0.77564175,-0.63117341,-0.63117341,0.77564175,0,0)"
         d="m -45.481186,-6.6152291 h 3.827009 v 3.0109794 h -3.827009 z" />
      <g
         aria-label="$"
         transform="matrix(0.7655067,-0.85208296,0.64943077,0.58344507,0,0)"
         id="g1254"
         style="font-style:normal;font-weight:normal;font-size:2.76033px;line-height:1.25;font-family:sans-serif;fill:#ffff00;fill-opacity:1;stroke:#ff0000;stroke-width:0.0690081">
        <path
           d="M 6.4802565,50.223892 H 6.3454748 l -0.00135,-0.405693 q -0.1415209,-0.0027 -0.2830417,-0.03235 -0.1415208,-0.031 -0.2843895,-0.09165 v -0.242607 q 0.1374774,0.08626 0.2776504,0.130738 0.1415208,0.04313 0.2911286,0.04448 v -0.614606 q -0.2978655,-0.04852 -0.433995,-0.164433 -0.1347818,-0.115913 -0.1347818,-0.318085 0,-0.219694 0.1469121,-0.346389 0.1469121,-0.126695 0.4218669,-0.145565 v -0.316737 h 0.1347817 v 0.312694 q 0.125347,0.0054 0.2426071,0.02696 0.1172601,0.02022 0.229129,0.05661 v 0.235868 q -0.1118689,-0.05661 -0.2304768,-0.08761 -0.1172601,-0.031 -0.2412593,-0.03639 v 0.575518 q 0.3059545,0.04717 0.450171,0.168478 0.1442165,0.121303 0.1442165,0.331563 0,0.227781 -0.1536512,0.359867 -0.1523034,0.130738 -0.4407363,0.150956 z M 6.3454748,48.78038 v -0.552605 q -0.1563468,0.01752 -0.2385637,0.08896 -0.082217,0.07143 -0.082217,0.190042 0,0.115912 0.075478,0.180607 0.076826,0.0647 0.2453028,0.093 z m 0.1347817,0.258781 v 0.583605 q 0.1711728,-0.02291 0.2574331,-0.09704 0.087608,-0.07413 0.087608,-0.195434 0,-0.118608 -0.083565,-0.188694 -0.082217,-0.07009 -0.2614766,-0.102434 z"
           style="fill:#ffff00;stroke:#ff0000;stroke-width:0.0690081"
           id="path1252" />
      </g>
    </g>
    <g
       id="g1264"
       transform="matrix(0.18225279,-1.208748,-1.1420143,-0.16286257,39.882719,91.897056)">
      <path
         id="path1258"
         style="fill:#008000;fill-opacity:1;stroke:#000000;stroke-width:0.18621;stroke-miterlimit:4;stroke-dasharray:none"
         transform="matrix(-0.77564175,-0.63117341,-0.63117341,0.77564175,0,0)"
         d="m -45.481186,-6.6152291 h 3.827009 v 3.0109794 h -3.827009 z" />
      <g
         aria-label="$"
         transform="matrix(0.7655067,-0.85208296,0.64943077,0.58344507,0,0)"
         id="g1262"
         style="font-style:normal;font-weight:normal;font-size:2.76033px;line-height:1.25;font-family:sans-serif;fill:#ffff00;fill-opacity:1;stroke:#ff0000;stroke-width:0.0690081">
        <path
           d="M 6.4802565,50.223892 H 6.3454748 l -0.00135,-0.405693 q -0.1415209,-0.0027 -0.2830417,-0.03235 -0.1415208,-0.031 -0.2843895,-0.09165 v -0.242607 q 0.1374774,0.08626 0.2776504,0.130738 0.1415208,0.04313 0.2911286,0.04448 v -0.614606 q -0.2978655,-0.04852 -0.433995,-0.164433 -0.1347818,-0.115913 -0.1347818,-0.318085 0,-0.219694 0.1469121,-0.346389 0.1469121,-0.126695 0.4218669,-0.145565 v -0.316737 h 0.1347817 v 0.312694 q 0.125347,0.0054 0.2426071,0.02696 0.1172601,0.02022 0.229129,0.05661 v 0.235868 q -0.1118689,-0.05661 -0.2304768,-0.08761 -0.1172601,-0.031 -0.2412593,-0.03639 v 0.575518 q 0.3059545,0.04717 0.450171,0.168478 0.1442165,0.121303 0.1442165,0.331563 0,0.227781 -0.1536512,0.359867 -0.1523034,0.130738 -0.4407363,0.150956 z M 6.3454748,48.78038 v -0.552605 q -0.1563468,0.01752 -0.2385637,0.08896 -0.082217,0.07143 -0.082217,0.190042 0,0.115912 0.075478,0.180607 0.076826,0.0647 0.2453028,0.093 z m 0.1347817,0.258781 v 0.583605 q 0.1711728,-0.02291 0.2574331,-0.09704 0.087608,-0.07413 0.087608,-0.195434 0,-0.118608 -0.083565,-0.188694 -0.082217,-0.07009 -0.2614766,-0.102434 z"
           style="fill:#ffff00;stroke:#ff0000;stroke-width:0.0690081"
           id="path1260" />
      </g>
    </g>
    <g
       id="g1315"
       transform="matrix(-1.3533635,-0.89574156,0.82876601,-1.4051924,50.488146,99.216454)">
      <path
         id="path1309"
         style="fill:#008000;fill-opacity:1;stroke:#000000;stroke-width:0.18621;stroke-miterlimit:4;stroke-dasharray:none"
         transform="matrix(-0.77564175,-0.63117341,-0.63117341,0.77564175,0,0)"
         d="m -45.481186,-6.6152291 h 3.827009 v 3.0109794 h -3.827009 z" />
      <g
         aria-label="$"
         transform="matrix(0.7655067,-0.85208296,0.64943077,0.58344507,0,0)"
         id="g1313"
         style="font-style:normal;font-weight:normal;font-size:2.76033px;line-height:1.25;font-family:sans-serif;fill:#ffff00;fill-opacity:1;stroke:#ff0000;stroke-width:0.0690081">
        <path
           d="M 6.4802565,50.223892 H 6.3454748 l -0.00135,-0.405693 q -0.1415209,-0.0027 -0.2830417,-0.03235 -0.1415208,-0.031 -0.2843895,-0.09165 v -0.242607 q 0.1374774,0.08626 0.2776504,0.130738 0.1415208,0.04313 0.2911286,0.04448 v -0.614606 q -0.2978655,-0.04852 -0.433995,-0.164433 -0.1347818,-0.115913 -0.1347818,-0.318085 0,-0.219694 0.1469121,-0.346389 0.1469121,-0.126695 0.4218669,-0.145565 v -0.316737 h 0.1347817 v 0.312694 q 0.125347,0.0054 0.2426071,0.02696 0.1172601,0.02022 0.229129,0.05661 v 0.235868 q -0.1118689,-0.05661 -0.2304768,-0.08761 -0.1172601,-0.031 -0.2412593,-0.03639 v 0.575518 q 0.3059545,0.04717 0.450171,0.168478 0.1442165,0.121303 0.1442165,0.331563 0,0.227781 -0.1536512,0.359867 -0.1523034,0.130738 -0.4407363,0.150956 z M 6.3454748,48.78038 v -0.552605 q -0.1563468,0.01752 -0.2385637,0.08896 -0.082217,0.07143 -0.082217,0.190042 0,0.115912 0.075478,0.180607 0.076826,0.0647 0.2453028,0.093 z m 0.1347817,0.258781 v 0.583605 q 0.1711728,-0.02291 0.2574331,-0.09704 0.087608,-0.07413 0.087608,-0.195434 0,-0.118608 -0.083565,-0.188694 -0.082217,-0.07009 -0.2614766,-0.102434 z"
           style="fill:#ffff00;stroke:#ff0000;stroke-width:0.0690081"
           id="path1311" />
      </g>
    </g>
    <g
       id="g1324"
       transform="matrix(-1.349616,0.43510915,-0.50838807,-1.5769116,32.499252,65.884226)">
      <path
         id="path1318"
         style="fill:#008000;fill-opacity:1;stroke:#000000;stroke-width:0.18621;stroke-miterlimit:4;stroke-dasharray:none"
         transform="rotate(-39.136748)"
         d="m -9.1189795,23.705238 h 3.827009 v 3.01098 h -3.827009 z" />
      <g
         aria-label="$"
         transform="matrix(0.9102264,-0.69536593,0.52998599,0.69374586,0,0)"
         id="g1322"
         style="font-style:normal;font-weight:normal;font-size:2.76033px;line-height:1.25;font-family:sans-serif;fill:#ffff00;fill-opacity:1;stroke:#ff0000;stroke-width:0.0690081">
        <path
           d="m -4.6604901,30.500336 h -0.1347817 l -0.00135,-0.405693 q -0.1415209,-0.0027 -0.2830417,-0.03235 -0.1415208,-0.031 -0.2843895,-0.09165 v -0.242607 q 0.1374774,0.08626 0.2776504,0.130739 0.1415208,0.04313 0.2911286,0.04448 V 29.28865 q -0.2978677,-0.04852 -0.4339972,-0.164434 -0.1347818,-0.115912 -0.1347818,-0.318085 0,-0.219694 0.1469121,-0.346389 0.1469121,-0.126695 0.4218669,-0.145564 v -0.316737 h 0.1347817 v 0.312693 q 0.125347,0.0054 0.2426071,0.02696 0.1172601,0.02022 0.229129,0.05661 v 0.235868 q -0.1118689,-0.05661 -0.2304768,-0.08761 -0.1172601,-0.031 -0.2412593,-0.03639 v 0.575518 q 0.3059546,0.04717 0.450171,0.168477 0.1442165,0.121304 0.1442165,0.331563 0,0.227781 -0.1536512,0.359867 -0.1523034,0.130739 -0.4407363,0.150956 z m -0.1347817,-1.443513 v -0.552605 q -0.1563468,0.01752 -0.2385637,0.08896 -0.082217,0.07143 -0.082217,0.190042 0,0.115913 0.075478,0.180608 0.076826,0.0647 0.2453028,0.093 z m 0.1347817,0.258781 v 0.583605 q 0.1711728,-0.02291 0.2574331,-0.09704 0.087608,-0.07413 0.087608,-0.195433 0,-0.118608 -0.083565,-0.188695 -0.082217,-0.07009 -0.2614766,-0.102434 z"
           style="fill:#ffff00;stroke:#ff0000;stroke-width:0.0690081"
           id="path1320" />
      </g>
    </g>
    <g
       id="g1333"
       transform="matrix(1.2170526,0.54838826,-0.43965574,1.3656848,-19.478157,-15.441576)">
      <path
         id="path1326"
         style="fill:#008000;fill-opacity:1;stroke:#000000;stroke-width:0.18621;stroke-miterlimit:4;stroke-dasharray:none"
         transform="matrix(-0.77564175,-0.63117341,-0.63117341,0.77564175,0,0)"
         d="m -45.481186,-6.6152291 h 3.827009 v 3.0109794 h -3.827009 z" />
      <g
         aria-label="$"
         transform="matrix(0.7655067,-0.85208296,0.64943077,0.58344507,0,0)"
         id="g1331"
         style="font-style:normal;font-weight:normal;font-size:2.76033px;line-height:1.25;font-family:sans-serif;fill:#ffff00;fill-opacity:1;stroke:#ff0000;stroke-width:0.0690081">
        <path
           d="M 6.4802565,50.223892 H 6.3454748 l -0.00135,-0.405693 q -0.1415209,-0.0027 -0.2830417,-0.03235 -0.1415208,-0.031 -0.2843895,-0.09165 v -0.242607 q 0.1374774,0.08626 0.2776504,0.130738 0.1415208,0.04313 0.2911286,0.04448 v -0.614606 q -0.2978655,-0.04852 -0.433995,-0.164433 -0.1347818,-0.115913 -0.1347818,-0.318085 0,-0.219694 0.1469121,-0.346389 0.1469121,-0.126695 0.4218669,-0.145565 v -0.316737 h 0.1347817 v 0.312694 q 0.125347,0.0054 0.2426071,0.02696 0.1172601,0.02022 0.229129,0.05661 v 0.235868 q -0.1118689,-0.05661 -0.2304768,-0.08761 -0.1172601,-0.031 -0.2412593,-0.03639 v 0.575518 q 0.3059545,0.04717 0.450171,0.168478 0.1442165,0.121303 0.1442165,0.331563 0,0.227781 -0.1536512,0.359867 -0.1523034,0.130738 -0.4407363,0.150956 z M 6.3454748,48.78038 v -0.552605 q -0.1563468,0.01752 -0.2385637,0.08896 -0.082217,0.07143 -0.082217,0.190042 0,0.115912 0.075478,0.180607 0.076826,0.0647 0.2453028,0.093 z m 0.1347817,0.258781 v 0.583605 q 0.1711728,-0.02291 0.2574331,-0.09704 0.087608,-0.07413 0.087608,-0.195434 0,-0.118608 -0.083565,-0.188694 -0.082217,-0.07009 -0.2614766,-0.102434 z"
           style="fill:#ffff00;stroke:#ff0000;stroke-width:0.0690081"
           id="path1329" />
      </g>
    </g>
    <g
       id="g1341"
       transform="matrix(0.03794151,1.3486435,-1.2427483,0.20864088,53.700642,-17.852769)">
      <path
         id="path1335"
         style="fill:#008000;fill-opacity:1;stroke:#000000;stroke-width:0.18621;stroke-miterlimit:4;stroke-dasharray:none"
         transform="matrix(-0.77564175,-0.63117341,-0.63117341,0.77564175,0,0)"
         d="m -45.481186,-6.6152291 h 3.827009 v 3.0109794 h -3.827009 z" />
      <g
         aria-label="$"
         transform="matrix(0.7655067,-0.85208296,0.64943077,0.58344507,0,0)"
         id="g1339"
         style="font-style:normal;font-weight:normal;font-size:2.76033px;line-height:1.25;font-family:sans-serif;fill:#ffff00;fill-opacity:1;stroke:#ff0000;stroke-width:0.0690081">
        <path
           d="M 6.4802565,50.223892 H 6.3454748 l -0.00135,-0.405693 q -0.1415209,-0.0027 -0.2830417,-0.03235 -0.1415208,-0.031 -0.2843895,-0.09165 v -0.242607 q 0.1374774,0.08626 0.2776504,0.130738 0.1415208,0.04313 0.2911286,0.04448 v -0.614606 q -0.2978655,-0.04852 -0.433995,-0.164433 -0.1347818,-0.115913 -0.1347818,-0.318085 0,-0.219694 0.1469121,-0.346389 0.1469121,-0.126695 0.4218669,-0.145565 v -0.316737 h 0.1347817 v 0.312694 q 0.125347,0.0054 0.2426071,0.02696 0.1172601,0.02022 0.229129,0.05661 v 0.235868 q -0.1118689,-0.05661 -0.2304768,-0.08761 -0.1172601,-0.031 -0.2412593,-0.03639 v 0.575518 q 0.3059545,0.04717 0.450171,0.168478 0.1442165,0.121303 0.1442165,0.331563 0,0.227781 -0.1536512,0.359867 -0.1523034,0.130738 -0.4407363,0.150956 z M 6.3454748,48.78038 v -0.552605 q -0.1563468,0.01752 -0.2385637,0.08896 -0.082217,0.07143 -0.082217,0.190042 0,0.115912 0.075478,0.180607 0.076826,0.0647 0.2453028,0.093 z m 0.1347817,0.258781 v 0.583605 q 0.1711728,-0.02291 0.2574331,-0.09704 0.087608,-0.07413 0.087608,-0.195434 0,-0.118608 -0.083565,-0.188694 -0.082217,-0.07009 -0.2614766,-0.102434 z"
           style="fill:#ffff00;stroke:#ff0000;stroke-width:0.0690081"
           id="path1337" />
      </g>
    </g>
    <g
       id="g2025"
       transform="translate(-41.379611,-0.44020863)">
      <path
         id="path1343"
         style="fill:#550000;fill-opacity:1;stroke:#000000;stroke-width:0.492656;stroke-miterlimit:4;stroke-dasharray:none"
         d="m 41.762429,38.794055 h 28.680116 v 3.983033 H 41.762429 Z" />
      <path
         id="path1345"
         style="fill:#ffcc00;fill-opacity:1;stroke:#000000;stroke-width:0.56483;stroke-miterlimit:4;stroke-dasharray:none"
         d="m 54.064566,38.739207 h 4.362791 c 0.868141,0 1.567041,0.6989 1.567041,1.567041 v 1.386229 c 0,0.86814 -0.6989,1.56704 -1.567041,1.56704 h -4.362791 c -0.86814,0 -1.567041,-0.6989 -1.567041,-1.56704 v -1.386229 c 0,-0.868141 0.698901,-1.567041 1.567041,-1.567041 z" />
      <g
         aria-label="$"
         transform="matrix(1.3431103,0,0,0.7445405,41.519703,0.20155589)"
         id="g1349"
         style="font-style:normal;font-weight:normal;font-size:5.18649px;line-height:1.25;font-family:sans-serif;fill:#000000;fill-opacity:1;stroke:none;stroke-width:0.129662">
        <path
           d="m 11.192483,57.043747 h -0.253246 l -0.0025,-0.762272 q -0.265909,-0.0051 -0.531818,-0.06078 -0.265909,-0.05825 -0.5343501,-0.172208 v -0.455844 q 0.2583111,0.162078 0.5216881,0.24565 0.265909,0.08104 0.547013,0.08357 V 54.76706 Q 10.379595,54.67589 10.123816,54.4581 9.8705689,54.240308 9.8705689,53.860438 q 0,-0.412792 0.2760391,-0.650844 0.276038,-0.238052 0.792662,-0.273506 v -0.59513 h 0.253246 v 0.587532 q 0.235519,0.01013 0.455844,0.05065 0.220324,0.03799 0.430519,0.106363 v 0.443182 q -0.210195,-0.106364 -0.433051,-0.164611 -0.220325,-0.05825 -0.453312,-0.06838 v 1.081363 q 0.57487,0.08864 0.845844,0.316558 0.270974,0.227922 0.270974,0.622987 0,0.427986 -0.288702,0.676168 -0.286168,0.245649 -0.828116,0.283636 z m -0.253246,-2.712271 v -1.038311 q -0.293767,0.03292 -0.448247,0.167143 -0.15448,0.134221 -0.15448,0.357078 0,0.217792 0.141818,0.33935 0.14435,0.121559 0.460909,0.17474 z m 0.253246,0.486234 v 1.096558 q 0.321623,-0.04305 0.483701,-0.182338 0.16461,-0.139286 0.16461,-0.367208 0,-0.222857 -0.157013,-0.354545 -0.15448,-0.131688 -0.491298,-0.192467 z"
           style="stroke-width:0.129662"
           id="path1347" />
      </g>
      <g
         id="g1363"
         transform="translate(59.694031,5.9478507)">
        <path
           id="path1351"
           style="opacity:1;fill:#00ffff;fill-opacity:1;stroke:#000000;stroke-width:0.502179;stroke-miterlimit:4;stroke-dasharray:none"
           transform="matrix(0.23795218,0,0,0.30387276,-10.957882,29.482829)"
           d="m -15.969494,22.442335 -4.960937,-4.960937 4.960937,-4.960938 4.960938,4.960937 z" />
        <path
           style="fill:none;stroke:#000000;stroke-width:0.0529167;stroke-linecap:butt;stroke-linejoin:miter;stroke-miterlimit:4;stroke-dasharray:none;stroke-opacity:1"
           d="m -14.757858,33.287456 -0.691919,1.415481"
           id="path1353" />
        <path
           style="fill:none;stroke:#000000;stroke-width:0.0529167;stroke-linecap:butt;stroke-linejoin:miter;stroke-miterlimit:4;stroke-dasharray:none;stroke-opacity:1"
           d="m -14.757858,33.287456 -0.03046,1.368235"
           id="path1355" />
        <path
           style="fill:none;stroke:#000000;stroke-width:0.0529167;stroke-linecap:butt;stroke-linejoin:miter;stroke-miterlimit:4;stroke-dasharray:none;stroke-opacity:1"
           d="m -14.757858,33.287456 0.560128,1.344613"
           id="path1357" />
        <path
           style="fill:none;stroke:#000000;stroke-width:0.0529167;stroke-linecap:butt;stroke-linejoin:miter;stroke-miterlimit:4;stroke-dasharray:none;stroke-opacity:1"
           d="m -15.449777,34.702937 0.691919,1.599507 -0.03046,-1.646753"
           id="path1359" />
        <path
           style="fill:none;stroke:#000000;stroke-width:0.0529167;stroke-linecap:butt;stroke-linejoin:miter;stroke-miterlimit:4;stroke-dasharray:none;stroke-opacity:1"
           d="m -14.19773,34.632069 -0.560128,1.670375"
           id="path1361" />
      </g>
      <g
         id="g1377"
         transform="translate(63.569439,6.1483028)">
        <path
           id="path1365"
           style="opacity:1;fill:#00ffff;fill-opacity:1;stroke:#000000;stroke-width:0.502179;stroke-miterlimit:4;stroke-dasharray:none"
           transform="matrix(0.23795218,0,0,0.30387276,-10.957882,29.482829)"
           d="m -15.969494,22.442335 -4.960937,-4.960937 4.960937,-4.960938 4.960938,4.960937 z" />
        <path
           style="fill:none;stroke:#000000;stroke-width:0.0529167;stroke-linecap:butt;stroke-linejoin:miter;stroke-miterlimit:4;stroke-dasharray:none;stroke-opacity:1"
           d="m -14.757858,33.287456 -0.691919,1.415481"
           id="path1367" />
        <path
           style="fill:none;stroke:#000000;stroke-width:0.0529167;stroke-linecap:butt;stroke-linejoin:miter;stroke-miterlimit:4;stroke-dasharray:none;stroke-opacity:1"
           d="m -14.757858,33.287456 -0.03046,1.368235"
           id="path1369" />
        <path
           style="fill:none;stroke:#000000;stroke-width:0.0529167;stroke-linecap:butt;stroke-linejoin:miter;stroke-miterlimit:4;stroke-dasharray:none;stroke-opacity:1"
           d="m -14.757858,33.287456 0.560128,1.344613"
           id="path1371" />
        <path
           style="fill:none;stroke:#000000;stroke-width:0.0529167;stroke-linecap:butt;stroke-linejoin:miter;stroke-miterlimit:4;stroke-dasharray:none;stroke-opacity:1"
           d="m -15.449777,34.702937 0.691919,1.599507 -0.03046,-1.646753"
           id="path1373" />
        <path
           style="fill:none;stroke:#000000;stroke-width:0.0529167;stroke-linecap:butt;stroke-linejoin:miter;stroke-miterlimit:4;stroke-dasharray:none;stroke-opacity:1"
           d="m -14.19773,34.632069 -0.560128,1.670375"
           id="path1375" />
      </g>
      <g
         id="g1391"
         transform="translate(63.569439,6.1483028)">
        <path
           id="path1379"
           style="opacity:1;fill:#00ffff;fill-opacity:1;stroke:#000000;stroke-width:0.502179;stroke-miterlimit:4;stroke-dasharray:none"
           transform="matrix(0.23795218,0,0,0.30387276,-10.957882,29.482829)"
           d="m -15.969494,22.442335 -4.960937,-4.960937 4.960937,-4.960938 4.960938,4.960937 z" />
        <path
           style="fill:none;stroke:#000000;stroke-width:0.0529167;stroke-linecap:butt;stroke-linejoin:miter;stroke-miterlimit:4;stroke-dasharray:none;stroke-opacity:1"
           d="m -14.757858,33.287456 -0.691919,1.415481"
           id="path1381" />
        <path
           style="fill:none;stroke:#000000;stroke-width:0.0529167;stroke-linecap:butt;stroke-linejoin:miter;stroke-miterlimit:4;stroke-dasharray:none;stroke-opacity:1"
           d="m -14.757858,33.287456 -0.03046,1.368235"
           id="path1383" />
        <path
           style="fill:none;stroke:#000000;stroke-width:0.0529167;stroke-linecap:butt;stroke-linejoin:miter;stroke-miterlimit:4;stroke-dasharray:none;stroke-opacity:1"
           d="m -14.757858,33.287456 0.560128,1.344613"
           id="path1385" />
        <path
           style="fill:none;stroke:#000000;stroke-width:0.0529167;stroke-linecap:butt;stroke-linejoin:miter;stroke-miterlimit:4;stroke-dasharray:none;stroke-opacity:1"
           d="m -15.449777,34.702937 0.691919,1.599507 -0.03046,-1.646753"
           id="path1387" />
        <path
           style="fill:none;stroke:#000000;stroke-width:0.0529167;stroke-linecap:butt;stroke-linejoin:miter;stroke-miterlimit:4;stroke-dasharray:none;stroke-opacity:1"
           d="m -14.19773,34.632069 -0.560128,1.670375"
           id="path1389" />
      </g>
      <g
         id="g1405"
         transform="translate(77.467454,6.014668)">
        <path
           id="path1393"
           style="opacity:1;fill:#00ffff;fill-opacity:1;stroke:#000000;stroke-width:0.502179;stroke-miterlimit:4;stroke-dasharray:none"
           transform="matrix(0.23795218,0,0,0.30387276,-10.957882,29.482829)"
           d="m -15.969494,22.442335 -4.960937,-4.960937 4.960937,-4.960938 4.960938,4.960937 z" />
        <path
           style="fill:none;stroke:#000000;stroke-width:0.0529167;stroke-linecap:butt;stroke-linejoin:miter;stroke-miterlimit:4;stroke-dasharray:none;stroke-opacity:1"
           d="m -14.757858,33.287456 -0.691919,1.415481"
           id="path1395" />
        <path
           style="fill:none;stroke:#000000;stroke-width:0.0529167;stroke-linecap:butt;stroke-linejoin:miter;stroke-miterlimit:4;stroke-dasharray:none;stroke-opacity:1"
           d="m -14.757858,33.287456 -0.03046,1.368235"
           id="path1397" />
        <path
           style="fill:none;stroke:#000000;stroke-width:0.0529167;stroke-linecap:butt;stroke-linejoin:miter;stroke-miterlimit:4;stroke-dasharray:none;stroke-opacity:1"
           d="m -14.757858,33.287456 0.560128,1.344613"
           id="path1399" />
        <path
           style="fill:none;stroke:#000000;stroke-width:0.0529167;stroke-linecap:butt;stroke-linejoin:miter;stroke-miterlimit:4;stroke-dasharray:none;stroke-opacity:1"
           d="m -15.449777,34.702937 0.691919,1.599507 -0.03046,-1.646753"
           id="path1401" />
        <path
           style="fill:none;stroke:#000000;stroke-width:0.0529167;stroke-linecap:butt;stroke-linejoin:miter;stroke-miterlimit:4;stroke-dasharray:none;stroke-opacity:1"
           d="m -14.19773,34.632069 -0.560128,1.670375"
           id="path1403" />
      </g>
      <g
         id="g1419"
         transform="translate(81.476497,6.0814854)">
        <path
           id="path1407"
           style="opacity:1;fill:#00ffff;fill-opacity:1;stroke:#000000;stroke-width:0.502179;stroke-miterlimit:4;stroke-dasharray:none"
           transform="matrix(0.23795218,0,0,0.30387276,-10.957882,29.482829)"
           d="m -15.969494,22.442335 -4.960937,-4.960937 4.960937,-4.960938 4.960938,4.960937 z" />
        <path
           style="fill:none;stroke:#000000;stroke-width:0.0529167;stroke-linecap:butt;stroke-linejoin:miter;stroke-miterlimit:4;stroke-dasharray:none;stroke-opacity:1"
           d="m -14.757858,33.287456 -0.691919,1.415481"
           id="path1409" />
        <path
           style="fill:none;stroke:#000000;stroke-width:0.0529167;stroke-linecap:butt;stroke-linejoin:miter;stroke-miterlimit:4;stroke-dasharray:none;stroke-opacity:1"
           d="m -14.757858,33.287456 -0.03046,1.368235"
           id="path1411" />
        <path
           style="fill:none;stroke:#000000;stroke-width:0.0529167;stroke-linecap:butt;stroke-linejoin:miter;stroke-miterlimit:4;stroke-dasharray:none;stroke-opacity:1"
           d="m -14.757858,33.287456 0.560128,1.344613"
           id="path1413" />
        <path
           style="fill:none;stroke:#000000;stroke-width:0.0529167;stroke-linecap:butt;stroke-linejoin:miter;stroke-miterlimit:4;stroke-dasharray:none;stroke-opacity:1"
           d="m -15.449777,34.702937 0.691919,1.599507 -0.03046,-1.646753"
           id="path1415" />
        <path
           style="fill:none;stroke:#000000;stroke-width:0.0529167;stroke-linecap:butt;stroke-linejoin:miter;stroke-miterlimit:4;stroke-dasharray:none;stroke-opacity:1"
           d="m -14.19773,34.632069 -0.560128,1.670375"
           id="path1417" />
      </g>
    </g>
    <path
       style="fill:none;stroke:#000000;stroke-width:0.3175;stroke-linecap:butt;stroke-linejoin:miter;stroke-miterlimit:4;stroke-dasharray:none;stroke-opacity:1"
       d="m 14.508972,45.130348 v 7.550364"
       id="path1421" />
    <path
       style="fill:none;stroke:#000000;stroke-width:0.161586;stroke-linecap:butt;stroke-linejoin:miter;stroke-miterlimit:4;stroke-dasharray:none;stroke-opacity:1"
       d="m 13.662581,10.055931 v 3.08449"
       id="path1275" />
    <path
       style="fill:none;stroke:#000000;stroke-width:0.161586;stroke-linecap:butt;stroke-linejoin:miter;stroke-miterlimit:4;stroke-dasharray:none;stroke-opacity:1"
       d="m 15.420006,10.143973 v 3.084489"
       id="path1277" />
    <g
       id="g1976"
       transform="translate(-0.26412518,4.490128)">
      <g
         id="g1764"
         transform="matrix(0.99979213,0,0,1.0362591,-41.544064,4.5241832)">
        <path
           id="path1237"
           style="fill:none;stroke:#000000;stroke-width:0.242647;stroke-miterlimit:4;stroke-dasharray:none"
           d="m 53.868154,11.139032 a 1.4453987,1.2232412 0 0 1 -1.445622,-1.2231181 1.4453987,1.2232412 0 0 1 1.422298,-1.222686 2.3106544,1.6872107 0 0 1 2.297753,-1.5101239 2.3106544,1.6872107 0 0 1 2.297754,1.5101239 1.4453987,1.2232412 0 0 1 1.422297,1.222686 1.4453987,1.2232412 0 0 1 -1.445105,1.2231181 1.4453987,1.2232412 0 0 1 -1.323292,-0.73154 2.3106544,1.6872107 0 0 1 -0.951654,0.150192 2.3106544,1.6872107 0 0 1 -0.951653,-0.14976 1.4453987,1.2232412 0 0 1 -1.322776,0.731108 z" />
        <path
           id="path1239"
           style="fill:#000000;stroke:#000000;stroke-width:0.337787;stroke-miterlimit:4;stroke-dasharray:none"
           d="m 55.026552,10.397598 a 0.23609477,0.80584098 37.161538 0 1 -0.65645,0.453166 0.23609477,0.80584098 37.161538 0 1 0.337319,-0.812508 0.23609477,0.80584098 37.161538 0 1 0.656451,-0.4531662 0.23609477,0.80584098 37.161538 0 1 -0.33732,0.8125082 z" />
        <path
           id="path1242"
           style="fill:#000000;stroke:#000000;stroke-width:0.337787;stroke-miterlimit:4;stroke-dasharray:none"
           d="m 57.400501,10.444843 a 0.80584098,0.23609477 52.838462 0 0 0.656451,0.453166 0.80584098,0.23609477 52.838462 0 0 -0.337319,-0.812507 0.80584098,0.23609477 52.838462 0 0 -0.656451,-0.4531669 0.80584098,0.23609477 52.838462 0 0 0.337319,0.8125079 z" />
      </g>
      <path
         id="path1244"
         style="fill:none;stroke:#000000;stroke-width:0.159609;stroke-miterlimit:4;stroke-dasharray:none"
         d="m 17.151648,12.363394 a 3.2982616,1.6276907 5.1009394 0 0 1.740807,1.635436 3.2982616,1.6276907 5.1009394 0 0 3.508532,0.104209 3.2982616,1.6276907 5.1009394 0 0 1.25921,-1.546331" />
      <path
         id="path1423"
         style="fill:#00ffff;stroke:#000000;stroke-width:0.242819;stroke-miterlimit:4;stroke-dasharray:none"
         d="m 11.723797,11.689588 a 1.4061097,1.2598166 0 0 1 -1.40611,1.259816 1.4061097,1.2598166 0 0 1 -1.4061094,-1.259816 1.4061097,1.2598166 0 0 1 1.4061094,-1.259817 1.4061097,1.2598166 0 0 1 1.40611,1.259817 z" />
      <g
         id="g1435"
         transform="matrix(0.99979213,0,0,1.0362591,-0.03299168,4.7330473)">
        <g
           id="g1427"
           transform="matrix(1.1243192,0,0,1.361732,-0.434106,-0.372236)">
          <path
             id="path1425"
             style="fill:none;stroke:#000000;stroke-width:0.265112;stroke-miterlimit:4;stroke-dasharray:none"
             d="m 11.651062,4.3173862 a 3.2647147,2.042804 0 0 1 -1.632357,1.7691201 3.2647147,2.042804 0 0 1 -3.2647147,0 3.2647147,2.042804 0 0 1 -1.6323572,-1.7691201 z" />
        </g>
        <path
           id="path1429"
           style="fill:#000000;stroke:#000000;stroke-width:0.265112;stroke-miterlimit:4;stroke-dasharray:none"
           d="m 11.342544,6.7327003 a 0.94494045,0.92131698 0 0 1 -0.94494,0.921317 0.94494045,0.92131698 0 0 1 -0.9449405,-0.921317 0.94494045,0.92131698 0 0 1 0.9449405,-0.9213169 0.94494045,0.92131698 0 0 1 0.94494,0.9213169 z" />
        <g
           aria-label="$"
           transform="scale(1.209335,0.82690071)"
           id="g1433"
           style="font-style:normal;font-weight:normal;font-size:2.33683px;line-height:1.25;font-family:sans-serif;fill:#ffff00;fill-opacity:1;stroke:#000000;stroke-width:0.0584209">
          <path
             d="M 8.6039101,9.2586446 H 8.4898071 L 8.4886661,8.9151945 Q 8.3688579,8.9129125 8.2490497,8.8878098 8.1292416,8.8615661 8.0082924,8.8102197 V 8.6048343 q 0.116385,0.073026 0.2350522,0.1106799 0.1198082,0.036513 0.2464625,0.037654 V 8.2328584 Q 8.2376394,8.1917813 8.1223954,8.0936527 8.0082924,7.9955242 8.0082924,7.8243696 q 0,-0.1859879 0.1243723,-0.2932448 Q 8.257037,7.423868 8.4898071,7.4078936 V 7.1397515 h 0.114103 v 0.264719 q 0.1061159,0.00456 0.2053855,0.022821 0.09927,0.017116 0.1939751,0.047923 V 7.6748947 Q 8.9085652,7.6269714 8.8081546,7.6007277 8.7088849,7.574484 8.6039101,7.5699199 v 0.4872199 q 0.2590139,0.039936 0.3811041,0.1426288 0.1220903,0.1026927 0.1220903,0.2806934 0,0.1928341 -0.1300775,0.3046551 Q 8.8480906,8.895797 8.6039101,8.9129125 Z M 8.4898071,8.0366012 V 7.5687788 q -0.1323595,0.014833 -0.2019623,0.075308 -0.069603,0.060475 -0.069603,0.1608853 0,0.098129 0.063898,0.1528981 0.065039,0.054769 0.2076673,0.078731 z m 0.114103,0.2190778 v 0.4940661 q 0.1449109,-0.019398 0.2179368,-0.082154 0.074167,-0.062757 0.074167,-0.1654494 0,-0.1004107 -0.070744,-0.1597443 -0.069603,-0.059333 -0.2213598,-0.086718 z"
             style="fill:#ffff00;stroke:#000000;stroke-width:0.0584209"
             id="path1431" />
        </g>
      </g>
      <g
         id="g1451"
         transform="matrix(0.99979213,0,0,1.0362591,31.765471,1.6172421)">
        <path
           id="path1437"
           style="fill:#00ffff;stroke:#000000;stroke-width:0.238558;stroke-miterlimit:4;stroke-dasharray:none"
           d="m -8.820521,9.5862761 a 1.406402,1.2157351 0 0 1 -1.406402,1.2157349 1.406402,1.2157351 0 0 1 -1.406402,-1.2157349 1.406402,1.2157351 0 0 1 1.406402,-1.2157351 1.406402,1.2157351 0 0 1 1.406402,1.2157351 z" />
        <g
           id="g1449"
           transform="translate(-20.579753,2.9399648)">
          <g
             id="g1441"
             transform="matrix(1.1243192,0,0,1.361732,-0.434106,-0.372236)">
            <path
               id="path1439"
               style="fill:none;stroke:#000000;stroke-width:0.265112;stroke-miterlimit:4;stroke-dasharray:none"
               d="m 11.651062,4.3173862 a 3.2647147,2.042804 0 0 1 -1.632357,1.7691201 3.2647147,2.042804 0 0 1 -3.2647147,0 3.2647147,2.042804 0 0 1 -1.6323572,-1.7691201 z" />
          </g>
          <path
             id="path1443"
             style="fill:#000000;stroke:#000000;stroke-width:0.265112;stroke-miterlimit:4;stroke-dasharray:none"
             d="m 11.342544,6.7327003 a 0.94494045,0.92131698 0 0 1 -0.94494,0.921317 0.94494045,0.92131698 0 0 1 -0.9449405,-0.921317 0.94494045,0.92131698 0 0 1 0.9449405,-0.9213169 0.94494045,0.92131698 0 0 1 0.94494,0.9213169 z" />
          <g
             aria-label="$"
             transform="scale(1.209335,0.82690071)"
             id="g1447"
             style="font-style:normal;font-weight:normal;font-size:2.33683px;line-height:1.25;font-family:sans-serif;fill:#ffff00;fill-opacity:1;stroke:#000000;stroke-width:0.0584209">
            <path
               d="M 8.6039101,9.2586446 H 8.4898071 L 8.4886661,8.9151945 Q 8.3688579,8.9129125 8.2490497,8.8878098 8.1292416,8.8615661 8.0082924,8.8102197 V 8.6048343 q 0.116385,0.073026 0.2350522,0.1106799 0.1198082,0.036513 0.2464625,0.037654 V 8.2328584 Q 8.2376394,8.1917813 8.1223954,8.0936527 8.0082924,7.9955242 8.0082924,7.8243696 q 0,-0.1859879 0.1243723,-0.2932448 Q 8.257037,7.423868 8.4898071,7.4078936 V 7.1397515 h 0.114103 v 0.264719 q 0.1061159,0.00456 0.2053855,0.022821 0.09927,0.017116 0.1939751,0.047923 V 7.6748947 Q 8.9085652,7.6269714 8.8081546,7.6007277 8.7088849,7.574484 8.6039101,7.5699199 v 0.4872199 q 0.2590139,0.039936 0.3811041,0.1426288 0.1220903,0.1026927 0.1220903,0.2806934 0,0.1928341 -0.1300775,0.3046551 Q 8.8480906,8.895797 8.6039101,8.9129125 Z M 8.4898071,8.0366012 V 7.5687788 q -0.1323595,0.014833 -0.2019623,0.075308 -0.069603,0.060475 -0.069603,0.1608853 0,0.098129 0.063898,0.1528981 0.065039,0.054769 0.2076673,0.078731 z m 0.114103,0.2190778 v 0.4940661 q 0.1449109,-0.019398 0.2179368,-0.082154 0.074167,-0.062757 0.074167,-0.1654494 0,-0.1004107 -0.070744,-0.1597443 -0.069603,-0.059333 -0.2213598,-0.086718 z"
               style="fill:#ffff00;stroke:#000000;stroke-width:0.0584209"
               id="path1445" />
          </g>
        </g>
      </g>
      <path
         id="path1453"
         style="fill:none;stroke:#000000;stroke-width:0.159609;stroke-miterlimit:4;stroke-dasharray:none"
         d="m 4.859807,12.294153 a 3.2982616,1.6276907 5.1009394 0 0 1.7408071,1.635436 3.2982616,1.6276907 5.1009394 0 0 3.5085319,0.104209 3.2982616,1.6276907 5.1009394 0 0 1.25921,-1.546331" />
    </g>
    <path
       id="path1455"
       style="fill:none;stroke:#000000;stroke-width:0.389881;stroke-miterlimit:4;stroke-dasharray:none"
       d="m 4.4273461,14.860497 v -3.252826 0 H 23.588645 v 3.252826" />
    <path
       id="path1457"
       style="fill:#88aa00;stroke:#000000;stroke-width:0.792729;stroke-miterlimit:4;stroke-dasharray:none"
       d="M 23.580883,22.215904 V 30.81791 H 4.6092466 v -8.602006" />
    <path
       id="path1459"
       style="fill:none;fill-opacity:1;stroke:#d40000;stroke-width:0.657754;stroke-miterlimit:4;stroke-dasharray:none"
       d="M 18.043843,25.726513 A 5.7168899,3.0710564 26.007576 0 1 11.612759,26.00571 5.7168899,3.0710564 26.007576 0 1 7.7409909,20.770875" />
    <g
       id="g1615"
       transform="matrix(0.76531962,0,0,0.98901927,-36.713231,7.4917158)">
      <path
         id="rect1609"
         style="fill:#ffff00;stroke:#000000;stroke-width:0.635;stroke-miterlimit:4;stroke-dasharray:none"
         d="m 78.973427,16.551844 h 3.697752 v 2.024959 h -3.697752 z" />
      <path
         id="path1611"
         style="fill:#ffff00;stroke:#000000;stroke-width:0.635;stroke-miterlimit:4;stroke-dasharray:none"
         d="m 84.167895,17.344219 a 1.2325842,1.9369179 0 0 1 -1.232585,1.936918 1.2325842,1.9369179 0 0 1 -1.232584,-1.936918 1.2325842,1.9369179 0 0 1 1.232584,-1.936918 1.2325842,1.9369179 0 0 1 1.232585,1.936918 z" />
    </g>
    <g
       id="g1759"
       transform="matrix(-0.69687673,0,0,0.98310324,59.203781,7.738783)">
      <path
         id="rect1755"
         style="fill:#ffff00;stroke:#000000;stroke-width:0.635;stroke-miterlimit:4;stroke-dasharray:none"
         d="m 78.973427,16.551844 h 3.697752 v 2.024959 h -3.697752 z" />
      <path
         id="ellipse1757"
         style="fill:#ffff00;stroke:#000000;stroke-width:0.635;stroke-miterlimit:4;stroke-dasharray:none"
         d="m 84.167895,17.344219 a 1.2325842,1.9369179 0 0 1 -1.232585,1.936918 1.2325842,1.9369179 0 0 1 -1.232584,-1.936918 1.2325842,1.9369179 0 0 1 1.232584,-1.936918 1.2325842,1.9369179 0 0 1 1.232585,1.936918 z" />
    </g>
    <path
       id="path1943"
       style="fill:none;stroke:#000000;stroke-width:0.474437;stroke-miterlimit:4;stroke-dasharray:none"
       d="m 0.41330159,12.169695 v -3.2237476 0 H 29.043031 v 3.2237476" />
    <path
       style="fill:#d40000;stroke:#d40000;stroke-width:0.529167;stroke-linecap:butt;stroke-linejoin:miter;stroke-miterlimit:4;stroke-dasharray:none;stroke-opacity:1"
       d="M 6.6031293,4.3140446 11.885633,11.269341"
       id="path1945" />
    <path
       style="fill:#d40000;stroke:#d40000;stroke-width:0.498475;stroke-linecap:butt;stroke-linejoin:miter;stroke-miterlimit:4;stroke-dasharray:none;stroke-opacity:1"
       d="M 4.7195638,8.5197554 7.797447,12.700754"
       id="path1947" />
    <path
       id="rect1949"
       style="fill:#999999;stroke:#000000;stroke-width:0.323289;stroke-miterlimit:4;stroke-dasharray:none"
       d="m 7.1433011,7.0858932 c 0.5045809,0 0.9107958,0.4429357 0.9107958,0.9931293 v 1.0679171 c 0,0.5501937 -0.4062149,0.9931294 -0.9107958,0.9931294 -0.5045808,0 -0.9107958,-0.4429357 -0.9107958,-0.9931294 V 8.0790225 c 0,-0.5501936 0.406215,-0.9931293 0.9107958,-0.9931293 z" />
    <path
       id="rect1951"
       style="fill:#999999;stroke:#000000;stroke-width:0.32326;stroke-miterlimit:4;stroke-dasharray:none"
       d="m 14.600048,7.0891747 c 0.519356,0 0.937466,0.4302575 0.937466,0.9647029 v 1.0373502 c 0,0.5344453 -0.41811,0.9647032 -0.937466,0.9647032 -0.519357,0 -0.937467,-0.4302579 -0.937467,-0.9647032 V 8.0538776 c 0,-0.5344454 0.41811,-0.9647029 0.937467,-0.9647029 z" />
    <path
       id="rect1953"
       style="fill:#999999;stroke:#000000;stroke-width:0.323289;stroke-miterlimit:4;stroke-dasharray:none"
       d="m 21.570223,6.8368759 c 0.504581,0 0.910796,0.4429357 0.910796,0.9931294 v 1.0679171 c 0,0.5501937 -0.406215,0.9931294 -0.910796,0.9931294 -0.50458,0 -0.910795,-0.4429357 -0.910795,-0.9931294 V 7.8300053 c 0,-0.5501937 0.406215,-0.9931294 0.910795,-0.9931294 z" />
    <path
       id="rect1978"
       style="fill:#000000;stroke:#000000;stroke-width:0.192457;stroke-miterlimit:4;stroke-dasharray:none"
       d="M 0.19378366,0.08214477 H 3.0266234 V 7.5811959 H 0.19378366 Z" />
    <path
       id="rect1980"
       style="fill:#000000;stroke:#000000;stroke-width:0.192457;stroke-miterlimit:4;stroke-dasharray:none"
       d="m 25.99781,0.08989707 h 2.83284 V 7.5889482 h -2.83284 z" />
    <path
       id="rect1982"
       style="fill:#000000;stroke:#000000;stroke-width:0.207962;stroke-miterlimit:4;stroke-dasharray:none"
       d="M 1.8743782,0.08989707 H 25.99781 V 3.8756913 H 1.8743782 Z" />
    <path
       id="rect1984"
       style="fill:#e6e6e6;stroke:#000000;stroke-width:0.241834;stroke-miterlimit:4;stroke-dasharray:none"
       d="M 8.2832804,0.11467881 H 21.474823 V 3.6903939 H 8.2832804 Z" />
  </g>
</svg>
