<?xml version="1.0" encoding="UTF-8" standalone="no"?>
<svg
   xmlns:dc="http://purl.org/dc/elements/1.1/"
   xmlns:cc="http://creativecommons.org/ns#"
   xmlns:rdf="http://www.w3.org/1999/02/22-rdf-syntax-ns#"
   xmlns:svg="http://www.w3.org/2000/svg"
   xmlns="http://www.w3.org/2000/svg"
   width="120"
   height="170"
   viewBox="0 0 31.749999 44.979168"
   version="1.1"
   id="svg8">
  <defs
     id="defs2" />
  <g
     id="g2999"
     transform="translate(3.9963384,-23.359689)" />
  <circle
     style="fill:#ffffff;fill-opacity:1;stroke:#000000;stroke-width:0.249865;stroke-miterlimit:4;stroke-dasharray:none;stroke-opacity:1"
     id="path1572"
     cx="0.074834853"
     cy="0.074835457"
     r="0" />
  <circle
     style="fill:#ffffff;stroke:#000000;stroke-width:0.30400625;stroke-miterlimit:4;stroke-dasharray:none"
     id="path118"
     d="m 19.06027,24.74017 a 3.0893812,2.7141681 0 0 1 -1.547477,2.35195 3.0893812,2.7141681 0 0 1 -3.092164,-0.0042 3.0893812,2.7141681 0 0 1 -1.539106,-2.356186" />
  <g
     id="g952"
     transform="matrix(0.98973871,0,0,0.99305991,0.12107624,0.15680511)">
    <path
       id="rect121"
       style="fill:#d35f8d;stroke:#000000;stroke-width:0.228218"
       d="M 0.21334563,0.29686279 H 31.753304 V 23.158922 H 0.21334563 Z" />
    <path
       id="ellipse863"
       style="fill:#782167;stroke:#000000;stroke-width:0.338569;stroke-miterlimit:4;stroke-dasharray:none"
       d="m 23.143316,19.326735 a 7.2693987,2.7026932 0 0 1 -7.269398,2.702693 7.2693987,2.7026932 0 0 1 -7.2693988,-2.702693 7.2693987,2.7026932 0 0 1 7.2693988,-2.702693 7.2693987,2.7026932 0 0 1 7.269398,2.702693 z" />
    <path
       id="rect909"
       style="fill:#d4aa00;stroke:#000000;stroke-width:0.160614"
       d="m 17.180691,16.523038 0.02715,-0.01141 c 0.449155,-0.188679 0.881726,0.04515 0.96989,0.524282 l 0.152161,0.826926 c 0.08816,0.479132 -0.202453,1.016756 -0.651608,1.205435 l -0.02715,0.01141 c -0.449155,0.188678 -0.881726,-0.04515 -0.96989,-0.524283 l -0.152161,-0.826926 c -0.08816,-0.479132 0.202453,-1.016755 0.651608,-1.205434 z" />
    <path
       id="rect1680"
       style="fill:#d35f8d;fill-opacity:1;stroke:#000000;stroke-width:0.4243;stroke-miterlimit:4;stroke-dasharray:none;stroke-opacity:1"
       d="M 0.21215009,37.012318 H 31.53785 v 8.031587 H 0.21215009 Z" />
    <path
       style="fill:#000000;stroke:#000000;stroke-width:0.575091;stroke-miterlimit:4;stroke-dasharray:none"
       id="path26"
       d="M 27.971995,10.143557 A 9.5083339,11.817858 84.467146 0 0 22.497024,1.8833151 9.5083339,11.817858 84.467146 0 0 10.697588,1.8982163 9.5083339,11.817858 84.467146 0 0 4.3944112,10.173333 Z" />
    <path
       id="rect1037"
       style="fill:none;stroke:#2b0000;stroke-width:0.275391"
       d="m 25.781604,11.733726 h -5.379972 c -0.746259,0 -1.347038,0.600779 -1.347038,1.347038 v 0.860285 c 0,0.746259 0.600779,1.347038 1.347038,1.347038 h 5.379972 c 0.746259,0 1.347038,-0.600779 1.347038,-1.347038 v -0.860285 c 0,-0.746259 -0.600779,-1.347038 -1.347038,-1.347038 z" />
    <path
       id="rect1060"
       style="fill:none;stroke:#2b0000;stroke-width:0.275391"
       d="m 6.0103434,11.651265 h 5.5296416 c 0.704801,0 1.272203,0.567403 1.272203,1.272203 v 1.009956 c 0,0.7048 -0.567402,1.272203 -1.272203,1.272203 H 6.0103434 c -0.7048004,0 -1.2722029,-0.567403 -1.2722029,-1.272203 v -1.009956 c 0,-0.7048 0.5674025,-1.272203 1.2722029,-1.272203 z" />
    <path
       id="rect3011"
       style="fill:#d4aa00;stroke:#000000;stroke-width:0.19632;stroke-miterlimit:4;stroke-dasharray:none"
       d="m 15.261565,16.907752 -0.578431,-0.369525 c -0.360293,-0.230171 -0.817187,-0.114416 -1.024425,0.259539 l -0.7684,1.386554 c -0.207238,0.373955 -0.08402,0.860309 0.276273,1.090479 l 0.578431,0.369525 c 0.360293,0.23017 0.817186,0.114416 1.024425,-0.259539 l 0.7684,-1.386555 c 0.207238,-0.373954 0.08402,-0.860308 -0.276273,-1.090478 z" />
    <path
       id="rect3013"
       style="fill:#d4aa00;stroke:#000000;stroke-width:0.191411;stroke-miterlimit:4;stroke-dasharray:none"
       d="m 19.053091,20.345807 1.242782,-0.126301 c 0.355203,-0.0361 0.646829,0.0896 0.653868,0.28183 l 0.03654,0.997821 c 0.007,0.192232 -0.273251,0.376051 -0.628454,0.412149 l -1.242782,0.126302 c -0.355203,0.0361 -0.646829,-0.0896 -0.653869,-0.281829 l -0.03654,-0.997821 c -0.007,-0.192232 0.273251,-0.376052 0.628454,-0.412151 z" />
    <path
       id="rect919"
       style="fill:#d4aa00;stroke:#000000;stroke-width:0.158221;stroke-miterlimit:4;stroke-dasharray:none"
       d="m 14.986624,21.153899 -0.340355,-0.113032 c -0.263379,-0.08747 -0.522692,0.06048 -0.58142,0.331715 l -0.09363,0.43241 c -0.05873,0.271238 0.106026,0.560014 0.369405,0.647482 l 0.340355,0.113031 c 0.263378,0.08747 0.522691,-0.06048 0.58142,-0.331715 l 0.09362,-0.43241 c 0.05873,-0.271237 -0.106026,-0.560014 -0.369404,-0.647481 z" />
    <path
       id="rect977"
       style="fill:#d4aa00;stroke:#000000;stroke-width:0.158221;stroke-miterlimit:4;stroke-dasharray:none"
       d="m 11.244849,20.480379 -0.340355,-0.113031 c -0.263378,-0.08747 -0.522691,0.06048 -0.58142,0.331714 l -0.09362,0.432411 c -0.05873,0.271237 0.106026,0.560013 0.369404,0.64748 l 0.340355,0.113032 c 0.263379,0.08747 0.522692,-0.06048 0.58142,-0.331714 l 0.09363,-0.432411 c 0.05873,-0.271237 -0.106026,-0.560013 -0.369405,-0.647481 z" />
    <path
       id="ellipse3001"
       style="fill:none;stroke:#800000;stroke-width:0.6477;stroke-miterlimit:4;stroke-dasharray:none"
       d="m 23.573787,19.297248 a 7.6998692,3.0878156 0 0 1 -7.699869,3.087815 7.6998692,3.0878156 0 0 1 -7.6998693,-3.087815 7.6998692,3.0878156 0 0 1 7.6998693,-3.087816 7.6998692,3.0878156 0 0 1 7.699869,3.087816 z" />
    <path
       style="fill:none;fill-opacity:1;stroke:#1a1a1a;stroke-width:0.339101;stroke-miterlimit:4;stroke-dasharray:none"
       id="path1078"
       d="m 18.991227,13.858136 a 3.0538366,1.9611446 0 0 0 -1.526918,-1.698401 3.0538366,1.9611446 0 0 0 -3.053837,0 3.0538366,1.9611446 0 0 0 -1.526918,1.698401" />
    <path
       id="path1082"
       style="fill:#000000;fill-opacity:1;stroke:#1a1a1a;stroke-width:0.270082;stroke-miterlimit:4;stroke-dasharray:none"
       d="m 15.411235,13.957488 a 0.33860804,1.0685764 18.203632 0 1 -0.655589,0.933499 0.33860804,1.0685764 18.203632 0 1 -0.0022,-1.100814 0.33860804,1.0685764 18.203632 0 1 0.655588,-0.9335 0.33860804,1.0685764 18.203632 0 1 0.0022,1.100815 z" />
    <path
       id="ellipse1084"
       style="fill:#000000;fill-opacity:1;stroke:#1a1a1a;stroke-width:0.196478;stroke-miterlimit:4;stroke-dasharray:none"
       d="m 16.547689,14.000439 a 0.98836826,0.1937397 79.955411 0 0 0.363619,0.890707 0.98836826,0.1937397 79.955411 0 0 0.0012,-1.050353 0.98836826,0.1937397 79.955411 0 0 -0.363619,-0.890704 0.98836826,0.1937397 79.955411 0 0 -0.0012,1.05035 z" />
    <path
       style="fill:none;fill-rule:evenodd;stroke:#000000;stroke-width:0.24536"
       id="path1403"
       d="m 30.071007,13.496324 c 1.606887,-2.521177 -0.458284,-2.333381 -1.542569,-1.343385 -0.410651,0.37494 -0.822819,0.845803 -1.208286,1.364095" />
    <path
       style="fill:none;fill-rule:evenodd;stroke:#000000;stroke-width:0.24536"
       id="path1525"
       d="m 1.7582673,13.413865 c -1.60688739,-2.521177 0.4582835,-2.333381 1.5425693,-1.343386 0.4106503,0.37494 0.8228183,0.845804 1.2082858,1.364096" />
    <path
       id="rect1459"
       style="fill:#d35f8d;fill-opacity:1;stroke:#000000;stroke-width:0.346822;stroke-miterlimit:4;stroke-dasharray:none"
       d="M 0.2066352,23.406509 H 31.621165 V 36.879977 H 0.2066352 Z" />
    <path
       id="rect10"
       style="fill:none;stroke:#000000;stroke-width:0.670463;stroke-miterlimit:4;stroke-dasharray:none"
       d="M 0.21334563,0.29686279 H 31.621165 V 23.406509 H 0.21334563 Z" />
    <g
       id="g879">
      <path
         id="path1527"
         style="fill:#ffff00;fill-opacity:1;stroke:#000000;stroke-width:0.155046;stroke-miterlimit:4;stroke-dasharray:none"
         d="m 11.07059,13.447105 a 1.5910083,1.3241833 0 0 1 -1.5910076,1.324184 1.5910083,1.3241833 0 0 1 -1.591008,-1.324184 1.5910083,1.3241833 0 0 1 1.591008,-1.324183 1.5910083,1.3241833 0 0 1 1.5910076,1.324183 z" />
      <path
         id="path873"
         style="fill:#000000;fill-opacity:1;stroke:#000000;stroke-width:0.0735338;stroke-miterlimit:4;stroke-dasharray:none"
         d="M 10.24011,13.447105 A 0.76052737,0.62310493 0 0 1 9.4795827,14.07021 0.76052737,0.62310493 0 0 1 8.7190547,13.447105 0.76052737,0.62310493 0 0 1 9.4795827,12.824 0.76052737,0.62310493 0 0 1 10.24011,13.447105 Z" />
    </g>
    <g
       id="g883">
      <path
         id="ellipse1529"
         style="fill:#ffff00;fill-opacity:1;stroke:#000000;stroke-width:0.155046;stroke-miterlimit:4;stroke-dasharray:none"
         d="m 23.986204,13.447105 a 1.5910083,1.3241833 0 0 1 -1.591008,1.324184 1.5910083,1.3241833 0 0 1 -1.591009,-1.324184 1.5910083,1.3241833 0 0 1 1.591009,-1.324183 1.5910083,1.3241833 0 0 1 1.591008,1.324183 z" />
      <path
         id="path875"
         style="fill:#000000;fill-opacity:1;stroke:#000000;stroke-width:0.0735338;stroke-miterlimit:4;stroke-dasharray:none"
         d="M 23.155723,13.447105 A 0.76052737,0.62310493 0 0 1 22.395196,14.07021 0.76052737,0.62310493 0 0 1 21.634668,13.447105 0.76052737,0.62310493 0 0 1 22.395196,12.824 0.76052737,0.62310493 0 0 1 23.155723,13.447105 Z" />
    </g>
    <path
       id="path885"
       style="fill:#d35f8d;fill-opacity:1;stroke:#280b0b;stroke-width:0.745024;stroke-miterlimit:4;stroke-dasharray:none"
       d="m 28.372664,33.076382 a 12.283036,8.1991444 0 0 1 -6.141518,7.100667 12.283036,8.1991444 0 0 1 -12.2830362,0 12.283036,8.1991444 0 0 1 -6.1415178,-7.100667" />
    <path
       id="path909"
       style="fill:#000000;fill-opacity:1;stroke:#280b0b;stroke-width:0.688254;stroke-miterlimit:4;stroke-dasharray:none"
       d="m 16.144184,37.230644 a 0.65324223,1.0648371 0 0 1 -0.653242,1.064837 0.65324223,1.0648371 0 0 1 -0.653242,-1.064837 0.65324223,1.0648371 0 0 1 0.653242,-1.064837 0.65324223,1.0648371 0 0 1 0.653242,1.064837 z" />
    <path
       id="rect889"
       style="fill:#800080;fill-opacity:1;stroke:#280b0b;stroke-width:0.33434;stroke-miterlimit:4;stroke-dasharray:none"
       transform="matrix(0.86210307,-0.50673296,0.21188789,0.97729398,0,0)"
       d="M -1.5470191,40.689384 H 7.145579 c 0.6270348,0 1.1318317,0.504797 1.1318317,1.131832 0,0.627035 -0.5047969,1.131832 -1.1318317,1.131832 h -8.6925981 c -0.6270348,0 -1.1318318,-0.504797 -1.1318318,-1.131832 0,-0.627035 0.504797,-1.131832 1.1318318,-1.131832 z" />
    <path
       id="rect891"
       style="fill:#800080;fill-opacity:1;stroke:#280b0b;stroke-width:0.332388;stroke-miterlimit:4;stroke-dasharray:none"
       transform="matrix(0.98888827,0.14866068,-0.46386455,0.88590613,0,0)"
       d="m 27.925898,41.545929 h 8.673058 c 0.621896,0 1.122556,0.50066 1.122556,1.122555 0,0.621896 -0.50066,1.122556 -1.122556,1.122556 h -8.673058 c -0.621895,0 -1.122555,-0.50066 -1.122555,-1.122556 0,-0.621895 0.50066,-1.122555 1.122555,-1.122555 z" />
    <path
       id="rect893"
       style="fill:#800080;fill-opacity:1;stroke:#280b0b;stroke-width:0.332388;stroke-miterlimit:4;stroke-dasharray:none"
       transform="matrix(0.98163244,-0.19078193,-0.14071156,0.99005063,0,0)"
       d="m 24.40828,47.11235 h 8.673058 c 0.621896,0 1.122556,0.50066 1.122556,1.122556 0,0.621896 -0.50066,1.122555 -1.122556,1.122555 H 24.40828 c -0.621896,0 -1.122555,-0.500659 -1.122555,-1.122555 0,-0.621896 0.500659,-1.122556 1.122555,-1.122556 z" />
    <path
       id="rect897"
       style="fill:#800080;fill-opacity:1;stroke:#280b0b;stroke-width:0.332388;stroke-miterlimit:4;stroke-dasharray:none"
       transform="matrix(0.61358477,0.78962885,-0.94686438,0.32163308,0,0)"
       d="m 41.408154,4.2066274 h 8.673058 c 0.621896,0 1.122556,0.5006597 1.122556,1.1225553 0,0.6218957 -0.50066,1.1225554 -1.122556,1.1225554 h -8.673058 c -0.621896,0 -1.122555,-0.5006597 -1.122555,-1.1225554 0,-0.6218956 0.500659,-1.1225553 1.122555,-1.1225553 z" />
    <path
       id="rect899"
       style="fill:#800080;fill-opacity:1;stroke:#280b0b;stroke-width:0.332388;stroke-miterlimit:4;stroke-dasharray:none"
       transform="matrix(0.97367189,0.22795405,-0.5338225,0.84559656,0,0)"
       d="m 27.491824,29.167383 h 8.673058 c 0.621896,0 1.122555,0.50066 1.122555,1.122556 0,0.621895 -0.500659,1.122555 -1.122555,1.122555 h -8.673058 c -0.621896,0 -1.122556,-0.50066 -1.122556,-1.122555 0,-0.621896 0.50066,-1.122556 1.122556,-1.122556 z" />
    <path
       id="rect901"
       style="fill:#800080;fill-opacity:1;stroke:#280b0b;stroke-width:0.294097;stroke-miterlimit:4;stroke-dasharray:none"
       transform="matrix(-0.61437036,-0.78901778,0.93196207,-0.36255579,0,0)"
       d="m -33.708979,-13.722315 h 2.044714 c 0.640276,0 1.155732,0.515457 1.155732,1.155733 0,0.640276 -0.515456,1.155733 -1.155732,1.155733 h -2.044714 c -0.640276,0 -1.155733,-0.515457 -1.155733,-1.155733 0,-0.640276 0.515457,-1.155733 1.155733,-1.155733 z" />
    <path
       id="rect913"
       style="fill:#800080;fill-opacity:1;stroke:#280b0b;stroke-width:0.277371;stroke-miterlimit:4;stroke-dasharray:none"
       transform="matrix(-0.98348161,0.18100809,-0.2183231,-0.97587654,0,0)"
       d="m -24.422898,-30.754541 h 5.891589 c 0.589561,0 1.06419,0.474628 1.06419,1.064189 0,0.589561 -0.474629,1.064189 -1.06419,1.064189 h -5.891589 c -0.589561,0 -1.064189,-0.474628 -1.064189,-1.064189 0,-0.589561 0.474628,-1.064189 1.064189,-1.064189 z" />
    <path
       id="rect903"
       style="fill:#800080;fill-opacity:1;stroke:#280b0b;stroke-width:0.321519;stroke-miterlimit:4;stroke-dasharray:none"
       transform="matrix(-0.97517737,0.22142514,-0.28715426,-0.95788435,0,0)"
       d="m -16.306478,-31.57468 h 8.6362482 c 0.59009,0 1.0651444,0.475054 1.0651444,1.065144 0,0.59009 -0.4750544,1.065145 -1.0651444,1.065145 h -8.6362482 c -0.59009,0 -1.065144,-0.475055 -1.065144,-1.065145 0,-0.59009 0.475054,-1.065144 1.065144,-1.065144 z" />
    <path
       id="rect905"
       style="fill:#800080;fill-opacity:1;stroke:#280b0b;stroke-width:0.2715;stroke-miterlimit:4;stroke-dasharray:none"
       transform="matrix(-0.9984596,0.05548366,-0.07700046,-0.99703106,0,0)"
       d="m -13.633387,-29.310564 h 5.5746942 c 0.5884202,0 1.0621303,0.47371 1.0621303,1.06213 0,0.58842 -0.4737101,1.062131 -1.0621303,1.062131 h -5.5746942 c -0.58842,0 -1.062131,-0.473711 -1.062131,-1.062131 0,-0.58842 0.473711,-1.06213 1.062131,-1.06213 z" />
    <path
       id="rect911"
       style="fill:#800080;fill-opacity:1;stroke:#280b0b;stroke-width:0.294097;stroke-miterlimit:4;stroke-dasharray:none"
       transform="matrix(-0.94159773,0.33673982,-0.05284882,-0.99860252,0,0)"
       d="m -8.1069664,-31.732695 h 2.0447138 c 0.6402759,0 1.1557327,0.515457 1.1557327,1.155733 0,0.640276 -0.5154568,1.155733 -1.1557327,1.155733 h -2.0447138 c -0.6402759,0 -1.1557327,-0.515457 -1.1557327,-1.155733 0,-0.640276 0.5154568,-1.155733 1.1557327,-1.155733 z" />
  </g>
</svg>
