<?xml version="1.0" encoding="UTF-8" standalone="no"?>
<svg
   xmlns:dc="http://purl.org/dc/elements/1.1/"
   xmlns:cc="http://creativecommons.org/ns#"
   xmlns:rdf="http://www.w3.org/1999/02/22-rdf-syntax-ns#"
   xmlns:svg="http://www.w3.org/2000/svg"
   xmlns="http://www.w3.org/2000/svg"
   width="130"
   height="160"
   viewBox="0 0 34.395833 42.333335"
   version="1.1"
   id="svg8">
  <defs
     id="defs2" />
  <g
     id="g1197"
     transform="matrix(0.99569084,0,0,0.99085665,0.02738647,0.19463028)">
    <path
       id="path1032"
       style="fill:#217867;stroke:#000000;stroke-width:0.346618;stroke-miterlimit:4;stroke-dasharray:none"
       d="M 0.14539247,20.792994 H 34.34429 V 42.475319 H 0.14539247 Z" />
    <path
       id="rect956"
       style="fill:#217867;stroke:#000000;stroke-width:0.338667;stroke-miterlimit:4;stroke-dasharray:none"
       d="M 0.141417,0.094822 H 34.348265 V 20.789019 H 0.141417 Z" />
    <path
       id="path195"
       style="fill:#165044;stroke:#999999;stroke-width:0.287867"
       transform="scale(-1,1)"
       d="m -20.220406,13.148234 a 6.4745102,3.7850981 0 0 1 -3.302691,3.299782 6.4745102,3.7850981 0 0 1 -6.538624,-0.0667 6.4745102,3.7850981 0 0 1 -3.103764,-3.365134" />
    <path
       id="path181"
       style="fill:#165044;stroke:#999999;stroke-width:0.287867"
       transform="scale(-1,1)"
       d="m -19.921581,11.654117 a 6.4745102,3.7850981 0 0 1 -3.302692,3.299782 6.4745102,3.7850981 0 0 1 -6.538624,-0.0667 6.4745102,3.7850981 0 0 1 -3.103763,-3.365134" />
    <path
       id="rect962"
       style="fill:#000000;stroke:#808080;stroke-width:0.390579"
       d="m 21.651884,6.6785956 h 8.110576 c 0.89423,0 1.614133,0.7199032 1.614133,1.6141329 v 2.5513405 c 0,0.89423 -0.719903,1.614133 -1.614133,1.614133 h -8.110576 c -0.89423,0 -1.614133,-0.719903 -1.614133,-1.614133 V 8.2927285 c 0,-0.8942297 0.719903,-1.6141329 1.614133,-1.6141329 z" />
    <path
       id="path193"
       style="fill:#165044;stroke:#999999;stroke-width:0.347953"
       d="M 14.819758,11.393779 A 6.4526963,5.5488305 0 0 1 11.528194,16.231152 6.4526963,5.5488305 0 0 1 5.0115997,16.133371 6.4526963,5.5488305 0 0 1 1.9182934,11.200194" />
    <path
       id="path179"
       style="fill:#000000;fill-opacity:0;stroke:#999999;stroke-width:0.287867"
       d="M 14.841572,11.355293 A 6.4745102,3.7850981 0 0 1 11.53888,14.655075 6.4745102,3.7850981 0 0 1 5.0002563,14.588375 6.4745102,3.7850981 0 0 1 1.8964928,11.223241" />
    <path
       id="rect964"
       style="fill:#000000;stroke:#808080;stroke-width:0.390579"
       d="m 5.1154251,6.6785956 h 8.1105769 c 0.89423,0 1.614133,0.7199032 1.614133,1.6141329 v 2.5513405 c 0,0.89423 -0.719903,1.614133 -1.614133,1.614133 H 5.1154251 c -0.8942296,0 -1.6141329,-0.719903 -1.6141329,-1.614133 V 8.2927285 c 0,-0.8942297 0.7199033,-1.6141329 1.6141329,-1.6141329 z" />
    <path
       id="path978"
       style="fill:#217867;stroke:#000000;stroke-width:0.165284;stroke-miterlimit:4;stroke-dasharray:none"
       d="m 19.876648,13.182716 a 2.5729678,2.551961 0 0 1 -2.524486,2.551508 2.5729678,2.551961 0 0 1 -2.619623,-2.455351" />
    <path
       id="path197"
       style="fill:#a05a2c;fill-opacity:1;stroke:none;stroke-width:1.60457;stroke-miterlimit:4;stroke-dasharray:none"
       d="m 11.338558,2.1706069 a 1.2518791,3.193847 62.814158 0 0 -0.2137,2.0377722 1.2518791,3.193847 62.814158 0 0 4.092844,-1.6081488 1.2518791,3.193847 62.814158 0 0 0.213701,-2.03777211 1.2518791,3.193847 62.814158 0 0 -4.092845,1.60814871 z" />
    <path
       id="path199"
       style="fill:#a05a2c;fill-opacity:1;stroke:none;stroke-width:1.60457;stroke-miterlimit:4;stroke-dasharray:none"
       d="m 4.3656531,3.2271076 a 1.2518791,3.193847 62.814158 0 0 -0.2137,2.0377722 1.2518791,3.193847 62.814158 0 0 4.092844,-1.6081488 1.2518791,3.193847 62.814158 0 0 0.213701,-2.0377721 1.2518791,3.193847 62.814158 0 0 -4.092845,1.6081487 z" />
    <path
       style="fill:none;stroke:#000000;stroke-width:0.211667;stroke-linecap:butt;stroke-linejoin:miter;stroke-miterlimit:4;stroke-dasharray:none;stroke-opacity:1"
       d="m 4.677132,2.5516668 9.165923,0.094494"
       id="path980" />
    <path
       style="fill:none;stroke:#000000;stroke-width:0.185208;stroke-linecap:butt;stroke-linejoin:miter;stroke-miterlimit:4;stroke-dasharray:none;stroke-opacity:1"
       d="m 21.213591,2.5516668 9.165923,0.094494"
       id="path982" />
    <path
       style="fill:none;stroke:#000000;stroke-width:0.185208;stroke-linecap:butt;stroke-linejoin:miter;stroke-miterlimit:4;stroke-dasharray:none;stroke-opacity:1"
       d="m 5.149603,4.630536 9.165922,0.09449"
       id="path984" />
    <path
       style="fill:none;stroke:#000000;stroke-width:0.15875;stroke-linecap:butt;stroke-linejoin:miter;stroke-miterlimit:4;stroke-dasharray:none;stroke-opacity:1"
       d="m 20.363145,4.630536 9.165922,0.09449"
       id="path986" />
    <path
       style="fill:none;stroke:#000000;stroke-width:0.15875;stroke-linecap:butt;stroke-linejoin:miter;stroke-miterlimit:4;stroke-dasharray:none;stroke-opacity:1"
       d="M 18.31673,4.888308 V 8.630082"
       id="path990" />
    <path
       id="ellipse994"
       style="fill:#a05a2c;fill-opacity:1;stroke:none;stroke-width:0.680333;stroke-miterlimit:4;stroke-dasharray:none"
       d="m 32.55743,16.592326 a 1.4017431,0.51278628 62.495303 0 1 -0.02443,1.257342 1.4017431,0.51278628 62.495303 0 1 -1.118604,-1.273925 1.4017431,0.51278628 62.495303 0 1 0.02443,-1.257342 1.4017431,0.51278628 62.495303 0 1 1.118604,1.273925 z" />
    <path
       id="ellipse996"
       style="fill:#a05a2c;fill-opacity:1;stroke:none;stroke-width:0.422927;stroke-miterlimit:4;stroke-dasharray:none"
       d="m 32.649252,13.329495 a 0.90817524,0.3058609 66.267253 0 1 -0.01422,0.834914 0.90817524,0.3058609 66.267253 0 1 -0.650995,-0.845926 0.90817524,0.3058609 66.267253 0 1 0.01422,-0.834913 0.90817524,0.3058609 66.267253 0 1 0.650994,0.845925 z" />
    <path
       style="fill:none;stroke:#000000;stroke-width:0.15875;stroke-linecap:butt;stroke-linejoin:miter;stroke-miterlimit:4;stroke-dasharray:none;stroke-opacity:1"
       d="M 16.521343,3.943368 V 7.685142"
       id="path1027" />
    <path
       id="rect1041"
       style="fill:#217867;fill-opacity:1;stroke:#000000;stroke-width:0.321933;stroke-miterlimit:4;stroke-dasharray:none"
       d="m 11.237795,19.018689 h 12.040334 v 3.703285 H 11.237795 Z" />
    <path
       id="rect1043"
       style="fill:#217867;fill-opacity:1;stroke:none;stroke-width:0.309473;stroke-miterlimit:4;stroke-dasharray:none"
       d="m 11.407946,17.085003 h 11.681191 v 3.527419 H 11.407946 Z" />
    <path
       id="path1034"
       style="fill:#217867;fill-opacity:1;stroke:#000000;stroke-width:0.338667;stroke-miterlimit:4;stroke-dasharray:none"
       d="M 31.376471,30.629412 A 14.144314,10.110196 0 0 1 24.161382,39.443294 14.144314,10.110196 0 0 1 9.8770259,39.265162 14.144314,10.110196 0 0 1 3.0964507,30.276747" />
    <path
       id="rect1102"
       style="fill:#800000;fill-opacity:1;stroke:#ffffff;stroke-width:0.195166;stroke-miterlimit:4;stroke-dasharray:none"
       d="M 24.296047,21.14417 H 32.65607 V 31.299582 H 24.296047 Z" />
    <path
       id="rect1100"
       style="fill:#800000;fill-opacity:1;stroke:#ffffff;stroke-width:0.244695;stroke-miterlimit:4;stroke-dasharray:none"
       d="m 1.6598056,21.268543 h 8.310494 V 37.32755 h -8.310494 z" />
    <path
       id="path1104"
       style="fill:#ffcc00;fill-opacity:1;stroke:#ffffff;stroke-width:0.310504;stroke-miterlimit:4;stroke-dasharray:none"
       d="m 11.209397,27.072542 a 1.240274,1.3347679 0 0 1 -1.2402741,1.334768 1.240274,1.3347679 0 0 1 -1.240274,-1.334768 1.240274,1.3347679 0 0 1 1.240274,-1.334768 1.240274,1.3347679 0 0 1 1.2402741,1.334768 z" />
    <path
       id="ellipse1106"
       style="fill:#ffcc00;fill-opacity:1;stroke:#ffffff;stroke-width:0.310504;stroke-miterlimit:4;stroke-dasharray:none"
       d="M 10.075468,25.182661 A 1.240274,1.3347679 0 0 1 8.8351936,26.517429 1.240274,1.3347679 0 0 1 7.5949197,25.182661 1.240274,1.3347679 0 0 1 8.8351936,23.847893 1.240274,1.3347679 0 0 1 10.075468,25.182661 Z" />
    <path
       id="ellipse1108"
       style="fill:#ffcc00;fill-opacity:1;stroke:#ffffff;stroke-width:0.310504;stroke-miterlimit:4;stroke-dasharray:none"
       d="m 12.626808,28.773436 a 1.240274,1.3347679 0 0 1 -1.240274,1.334768 1.240274,1.3347679 0 0 1 -1.240274,-1.334768 1.240274,1.3347679 0 0 1 1.240274,-1.334768 1.240274,1.3347679 0 0 1 1.240274,1.334768 z" />
    <path
       id="ellipse1110"
       style="fill:#ffcc00;fill-opacity:1;stroke:#ffffff;stroke-width:0.310504;stroke-miterlimit:4;stroke-dasharray:none"
       d="m 14.3277,30.096352 a 1.240274,1.3347679 0 0 1 -1.240274,1.334768 1.240274,1.3347679 0 0 1 -1.240274,-1.334768 1.240274,1.3347679 0 0 1 1.240274,-1.334768 1.240274,1.3347679 0 0 1 1.240274,1.334768 z" />
    <path
       id="ellipse1112"
       style="fill:#ffcc00;fill-opacity:1;stroke:#ffffff;stroke-width:0.310504;stroke-miterlimit:4;stroke-dasharray:none"
       d="m 16.501063,30.757811 a 1.240274,1.3347679 0 0 1 -1.240274,1.334768 1.240274,1.3347679 0 0 1 -1.240274,-1.334768 1.240274,1.3347679 0 0 1 1.240274,-1.334768 1.240274,1.3347679 0 0 1 1.240274,1.334768 z" />
    <path
       id="ellipse1114"
       style="fill:#ffcc00;fill-opacity:1;stroke:#ffffff;stroke-width:0.310504;stroke-miterlimit:4;stroke-dasharray:none"
       d="m 18.76892,30.852304 a 1.240274,1.3347679 0 0 1 -1.240274,1.334768 1.240274,1.3347679 0 0 1 -1.240273,-1.334768 1.240274,1.3347679 0 0 1 1.240273,-1.334767 1.240274,1.3347679 0 0 1 1.240274,1.334767 z" />
    <path
       id="ellipse1116"
       style="fill:#ffcc00;fill-opacity:1;stroke:#ffffff;stroke-width:0.310504;stroke-miterlimit:4;stroke-dasharray:none"
       d="m 21.131271,30.285339 a 1.240274,1.3347679 0 0 1 -1.240274,1.334768 1.240274,1.3347679 0 0 1 -1.240274,-1.334768 1.240274,1.3347679 0 0 1 1.240274,-1.334768 1.240274,1.3347679 0 0 1 1.240274,1.334768 z" />
    <path
       id="ellipse1118"
       style="fill:#ffcc00;fill-opacity:1;stroke:#ffffff;stroke-width:0.310504;stroke-miterlimit:4;stroke-dasharray:none"
       d="m 23.115646,29.245905 a 1.240274,1.3347679 0 0 1 -1.240274,1.334768 1.240274,1.3347679 0 0 1 -1.240274,-1.334768 1.240274,1.3347679 0 0 1 1.240274,-1.334768 1.240274,1.3347679 0 0 1 1.240274,1.334768 z" />
    <path
       id="ellipse1120"
       style="fill:#ffcc00;fill-opacity:1;stroke:#ffffff;stroke-width:0.310504;stroke-miterlimit:4;stroke-dasharray:none"
       d="m 24.911033,27.733999 a 1.240274,1.3347679 0 0 1 -1.240274,1.334768 1.240274,1.3347679 0 0 1 -1.240274,-1.334768 1.240274,1.3347679 0 0 1 1.240274,-1.334768 1.240274,1.3347679 0 0 1 1.240274,1.334768 z" />
    <path
       id="ellipse1122"
       style="fill:#ffcc00;fill-opacity:1;stroke:#ffffff;stroke-width:0.310504;stroke-miterlimit:4;stroke-dasharray:none"
       d="m 26.517433,26.411083 a 1.240274,1.3347679 0 0 1 -1.240274,1.334768 1.240274,1.3347679 0 0 1 -1.240274,-1.334768 1.240274,1.3347679 0 0 1 1.240274,-1.334768 1.240274,1.3347679 0 0 1 1.240274,1.334768 z" />
    <path
       id="ellipse1124"
       style="fill:#ffcc00;fill-opacity:1;stroke:#ffffff;stroke-width:0.310504;stroke-miterlimit:4;stroke-dasharray:none"
       d="m 27.934843,25.088167 a 1.240274,1.3347679 0 0 1 -1.240274,1.334768 1.240274,1.3347679 0 0 1 -1.240274,-1.334768 1.240274,1.3347679 0 0 1 1.240274,-1.334768 1.240274,1.3347679 0 0 1 1.240274,1.334768 z" />
    <g
       aria-label="$"
       transform="scale(0.92596461,1.0799549)"
       id="text1128"
       style="font-style:normal;font-weight:normal;font-size:7.27869px;line-height:1.25;font-family:sans-serif;fill:#ffcc00;fill-opacity:1;stroke:#ffffff;stroke-width:0.181968">
      <path
         d="m 19.189279,36.9153 h -0.355405 l -0.0036,-1.069769 q -0.373175,-0.0071 -0.74635,-0.0853 -0.373175,-0.08174 -0.749904,-0.241675 V 34.87883 q 0.362512,0.22746 0.732133,0.344743 0.373175,0.11373 0.767675,0.117284 v -1.620646 q -0.785445,-0.127946 -1.144404,-0.433594 -0.355404,-0.305648 -0.355404,-0.838755 0,-0.57931 0.387391,-0.91339 0.387391,-0.334081 1.112417,-0.383838 v -0.835201 h 0.355405 v 0.824539 q 0.330526,0.01422 0.639728,0.07108 0.309202,0.05331 0.604188,0.14927 v 0.621959 q -0.294986,-0.14927 -0.607742,-0.231014 -0.309202,-0.08174 -0.636174,-0.09596 v 1.517579 q 0.806768,0.124391 1.187051,0.444256 0.380284,0.319864 0.380284,0.874295 0,0.600634 -0.405162,0.948931 -0.401607,0.344743 -1.162173,0.398053 z m -0.355405,-3.806385 v -1.45716 q -0.41227,0.0462 -0.629067,0.234567 -0.216797,0.188365 -0.216797,0.501121 0,0.305648 0.199027,0.476242 0.202581,0.170595 0.646837,0.24523 z m 0.355405,0.682377 v 1.538903 q 0.451364,-0.06042 0.678823,-0.255892 0.231013,-0.195473 0.231013,-0.515337 0,-0.312756 -0.220351,-0.497567 -0.216797,-0.18481 -0.689485,-0.270107 z"
         style="fill:#ffcc00;stroke:#ffffff;stroke-width:0.181968"
         id="path1170" />
    </g>
    <g
       aria-label="$"
       transform="matrix(0.93519091,0,0,1.0693004,20.519216,-9.5623528)"
       id="text1134"
       style="font-style:normal;font-weight:normal;font-size:4.97415px;line-height:1.25;font-family:sans-serif;fill:#008000;fill-opacity:1;stroke:#ffcc00;stroke-width:0.124354">
      <path
         d="M 9.1041625,37.751908 H 8.8612841 l -0.00243,-0.731064 q -0.2550224,-0.0049 -0.5100447,-0.05829 -0.2550223,-0.05586 -0.5124735,-0.165158 v -0.437181 q 0.247736,0.155442 0.5003296,0.235592 0.2550223,0.07772 0.5246174,0.08015 V 35.568431 Q 8.3245228,35.480994 8.0792155,35.272119 7.8363371,35.063243 7.8363371,34.698926 q 0,-0.395892 0.2647375,-0.624198 0.2647375,-0.228306 0.7602095,-0.262309 v -0.570764 h 0.2428784 v 0.563478 q 0.2258769,0.0097 0.4371812,0.04858 0.2113042,0.03643 0.4128933,0.102009 v 0.425037 Q 9.7526479,34.278746 9.5389149,34.222884 9.3276107,34.167022 9.1041625,34.157307 v 1.037091 q 0.551334,0.08501 0.811214,0.303598 0.2598795,0.21859 0.2598795,0.597481 0,0.410464 -0.276881,0.648485 -0.2744527,0.235592 -0.7942125,0.272024 z M 8.8612841,35.15068 v -0.995802 q -0.281739,0.03157 -0.4298948,0.1603 -0.1481559,0.128725 -0.1481559,0.342458 0,0.208876 0.1360119,0.325458 0.1384407,0.116581 0.4420388,0.167586 z m 0.2428784,0.466326 v 1.051664 q 0.3084556,-0.04129 0.4638978,-0.174873 0.157871,-0.133583 0.157871,-0.352173 0,-0.213733 -0.1505846,-0.34003 -0.1481559,-0.126297 -0.4711842,-0.184588 z"
         style="fill:#008000;stroke:#ffcc00;stroke-width:0.124354"
         id="path1173" />
    </g>
    <g
       aria-label="$"
       transform="matrix(0.9351909,0,0,1.0693004,-20.818039,2.4901957)"
       id="text1138"
       style="font-style:normal;font-weight:normal;font-size:4.97415px;line-height:1.25;font-family:sans-serif;fill:#008000;fill-opacity:1;stroke:#ffcc00;stroke-width:0.124354">
      <path
         d="M 28.605369,32.09623 H 28.36249 l -0.0024,-0.731064 q -0.255023,-0.0049 -0.510045,-0.05829 -0.255022,-0.05586 -0.512473,-0.165157 v -0.437182 q 0.247736,0.155443 0.500329,0.235592 0.255022,0.07772 0.524617,0.08015 v -1.107525 q -0.536761,-0.08744 -0.782068,-0.296312 -0.242878,-0.208875 -0.242878,-0.573193 0,-0.395892 0.264737,-0.624198 0.264737,-0.228305 0.760209,-0.262308 v -0.570765 h 0.242879 v 0.563478 q 0.225877,0.0097 0.437181,0.04858 0.211304,0.03643 0.412893,0.102009 v 0.425037 q -0.201589,-0.102009 -0.415322,-0.157871 -0.211304,-0.05586 -0.434752,-0.06558 v 1.037091 q 0.551334,0.08501 0.811214,0.303598 0.25988,0.218591 0.25988,0.597481 0,0.410464 -0.276882,0.648485 -0.274452,0.235592 -0.794212,0.272024 z M 28.36249,29.495002 V 28.4992 q -0.281738,0.03157 -0.429894,0.1603 -0.148156,0.128726 -0.148156,0.342459 0,0.208875 0.136012,0.325457 0.13844,0.116581 0.442038,0.167586 z m 0.242879,0.466326 v 1.051664 q 0.308456,-0.04129 0.463898,-0.174872 0.157871,-0.133584 0.157871,-0.352174 0,-0.213733 -0.150585,-0.34003 -0.148156,-0.126297 -0.471184,-0.184588 z"
         style="fill:#008000;stroke:#ffcc00;stroke-width:0.124354"
         id="path1176" />
    </g>
    <path
       id="path173"
       style="fill:#ffffff;stroke:#000000;stroke-width:0.25657"
       d="M 11.868982,9.5623531 A 2.2568252,2.4062364 0 0 1 9.6121569,11.96859 2.2568252,2.4062364 0 0 1 7.3553317,9.5623531 2.2568252,2.4062364 0 0 1 9.6121569,7.1561167 2.2568252,2.4062364 0 0 1 11.868982,9.5623531 Z" />
    <path
       id="ellipse175"
       style="fill:#ffffff;stroke:#000000;stroke-width:0.25657"
       d="M 27.806237,9.4627457 A 2.2568252,2.4062364 0 0 1 25.549412,11.868982 2.2568252,2.4062364 0 0 1 23.292587,9.4627457 2.2568252,2.4062364 0 0 1 25.549412,7.0565093 2.2568252,2.4062364 0 0 1 27.806237,9.4627457 Z" />
    <path
       id="path177"
       style="fill:#002b00;stroke:#000000;stroke-width:0.249536"
       d="m 21.833285,19.074903 a 4.6011262,2.1607337 0 0 1 -4.601126,2.160734 4.6011262,2.1607337 0 0 1 -4.601127,-2.160734 4.6011262,2.1607337 0 0 1 4.601127,-2.160733 4.6011262,2.1607337 0 0 1 4.601126,2.160733 z" />
    <path
       id="path183"
       style="fill:#ffffff;stroke:#999999;stroke-width:0.287867"
       transform="matrix(0.15587771,0,0,0.2101735,24.485461,17.171011)"
       d="M -43.130199,0.49803932 -46.358643,5.9478649 -49.464108,0.42703756 Z" />
    <path
       id="path185"
       style="fill:#ffffff;stroke:#999999;stroke-width:0.287867"
       transform="matrix(0.15587771,0,0,0.2101735,22.493305,17.569443)"
       d="M -43.130199,0.49803932 -46.358643,5.9478649 -49.464108,0.42703756 Z" />
    <path
       id="path187"
       style="fill:#ffffff;stroke:#999999;stroke-width:0.287867"
       transform="matrix(0.15587771,0,0,0.2101735,26.577226,17.370227)"
       d="M -43.130199,0.49803932 -46.358643,5.9478649 -49.464108,0.42703756 Z" />
    <path
       id="path189"
       style="fill:#ffffff;stroke:#999999;stroke-width:0.287867"
       transform="matrix(0.15587771,0,0,-0.2101735,25.780363,20.881293)"
       d="M -43.130199,0.49803932 -46.358643,5.9478649 -49.464108,0.42703756 Z" />
    <path
       id="path191"
       style="fill:#ffffff;stroke:#999999;stroke-width:0.287867"
       transform="matrix(0.15587771,0,0,-0.2101735,23.339971,21.030705)"
       d="M -43.130199,0.49803932 -46.358643,5.9478649 -49.464108,0.42703756 Z" />
    <path
       id="path1024"
       style="fill:#ffcc00;fill-opacity:1;stroke:#ffffff;stroke-width:0.310504;stroke-miterlimit:4;stroke-dasharray:none"
       d="m 29.130137,23.494441 a 1.240274,1.3347679 0 0 1 -1.240274,1.334768 1.240274,1.3347679 0 0 1 -1.240274,-1.334768 1.240274,1.3347679 0 0 1 1.240274,-1.334768 1.240274,1.3347679 0 0 1 1.240274,1.334768 z" />
    <path
       id="path1026"
       style="fill:#ffcc00;fill-opacity:1;stroke:#ffffff;stroke-width:0.310504;stroke-miterlimit:4;stroke-dasharray:none"
       d="m 30.524646,22.498363 a 1.240274,1.3347679 0 0 1 -1.240274,1.334768 1.240274,1.3347679 0 0 1 -1.240274,-1.334768 1.240274,1.3347679 0 0 1 1.240274,-1.334768 1.240274,1.3347679 0 0 1 1.240274,1.334768 z" />
    <path
       id="path1028"
       style="fill:#ffcc00;fill-opacity:1;stroke:#ffffff;stroke-width:0.310504;stroke-miterlimit:4;stroke-dasharray:none"
       d="m 9.1089598,23.693657 a 1.240274,1.3347679 0 0 1 -1.240274,1.334768 1.240274,1.3347679 0 0 1 -1.240274,-1.334768 1.240274,1.3347679 0 0 1 1.240274,-1.334768 1.240274,1.3347679 0 0 1 1.240274,1.334768 z" />
    <path
       id="path1030"
       style="fill:#ffcc00;fill-opacity:1;stroke:#ffffff;stroke-width:0.310504;stroke-miterlimit:4;stroke-dasharray:none"
       d="m 7.3160186,22.398755 a 1.240274,1.3347679 0 0 1 -1.240274,1.334768 1.240274,1.3347679 0 0 1 -1.240274,-1.334768 1.240274,1.3347679 0 0 1 1.240274,-1.334768 1.240274,1.3347679 0 0 1 1.240274,1.334768 z" />
  </g>
</svg>
